<?xml version="1.0" encoding="utf-8" standalone="no"?>
<!DOCTYPE svg PUBLIC "-//W3C//DTD SVG 1.1//EN"
  "http://www.w3.org/Graphics/SVG/1.1/DTD/svg11.dtd">
<svg xmlns:xlink="http://www.w3.org/1999/xlink" width="360pt" height="288pt" viewBox="0 0 360 288" xmlns="http://www.w3.org/2000/svg" version="1.1">
 <metadata>
  <rdf:RDF xmlns:dc="http://purl.org/dc/elements/1.1/" xmlns:cc="http://creativecommons.org/ns#" xmlns:rdf="http://www.w3.org/1999/02/22-rdf-syntax-ns#">
   <cc:Work>
    <dc:type rdf:resource="http://purl.org/dc/dcmitype/StillImage"/>
    <dc:date>2023-09-17T16:16:55.380625</dc:date>
    <dc:format>image/svg+xml</dc:format>
    <dc:creator>
     <cc:Agent>
      <dc:title>Matplotlib v3.7.1, https://matplotlib.org/</dc:title>
     </cc:Agent>
    </dc:creator>
   </cc:Work>
  </rdf:RDF>
 </metadata>
 <defs>
  <style type="text/css">*{stroke-linejoin: round; stroke-linecap: butt}</style>
 </defs>
 <g id="figure_1">
  <g id="patch_1">
   <path d="M 0 288 
L 360 288 
L 360 0 
L 0 0 
z
" style="fill: #ffffff"/>
  </g>
  <g id="axes_1">
   <g id="patch_2">
    <path d="M 45 256.32 
L 324 256.32 
L 324 34.56 
L 45 34.56 
z
" style="fill: #ffffff"/>
   </g>
   <g id="PolyCollection_1">
    <defs>
     <path id="m8003063f26" d="M 57.681818 -117.611643 
L 57.681818 -117.611643 
L 57.935455 -117.107426 
L 58.189091 -116.604239 
L 58.442727 -116.102102 
L 58.696364 -115.601037 
L 58.95 -115.101064 
L 59.203636 -114.602204 
L 59.457273 -114.104478 
L 59.710909 -113.607909 
L 59.964545 -113.112515 
L 60.218182 -112.61832 
L 60.471818 -112.125343 
L 60.725455 -111.633605 
L 60.979091 -111.143128 
L 61.232727 -110.653932 
L 61.486364 -110.166038 
L 61.74 -109.679468 
L 61.993636 -109.194241 
L 62.247273 -108.710379 
L 62.500909 -108.227902 
L 62.754545 -107.746831 
L 63.008182 -107.267188 
L 63.261818 -106.788991 
L 63.515455 -106.312262 
L 63.769091 -105.837022 
L 64.022727 -105.36329 
L 64.276364 -104.891088 
L 64.53 -104.420436 
L 64.783636 -103.951353 
L 65.037273 -103.483861 
L 65.290909 -103.017979 
L 65.544545 -102.553728 
L 65.798182 -102.091128 
L 66.051818 -101.630198 
L 66.305455 -101.170959 
L 66.559091 -100.71343 
L 66.812727 -100.257632 
L 67.066364 -99.803584 
L 67.32 -99.351306 
L 67.573636 -98.900817 
L 67.827273 -98.452137 
L 68.080909 -98.005286 
L 68.334545 -97.560283 
L 68.588182 -97.117146 
L 68.841818 -96.675896 
L 69.095455 -96.236552 
L 69.349091 -95.799132 
L 69.602727 -95.363656 
L 69.856364 -94.930142 
L 70.11 -94.498609 
L 70.363636 -94.069076 
L 70.617273 -93.641562 
L 70.870909 -93.216085 
L 71.124545 -92.792663 
L 71.378182 -92.371315 
L 71.631818 -91.952058 
L 71.885455 -91.534912 
L 72.139091 -91.119894 
L 72.392727 -90.707022 
L 72.646364 -90.296314 
L 72.9 -89.887787 
L 73.153636 -89.481459 
L 73.407273 -89.077348 
L 73.660909 -88.67547 
L 73.914545 -88.275844 
L 74.168182 -87.878485 
L 74.421818 -87.483412 
L 74.675455 -87.090641 
L 74.929091 -86.700189 
L 75.182727 -86.312072 
L 75.436364 -85.926307 
L 75.69 -85.542911 
L 75.943636 -85.161899 
L 76.197273 -84.783288 
L 76.450909 -84.407093 
L 76.704545 -84.033331 
L 76.958182 -83.662018 
L 77.211818 -83.293168 
L 77.465455 -82.926797 
L 77.719091 -82.562921 
L 77.972727 -82.201555 
L 78.226364 -81.842713 
L 78.48 -81.486412 
L 78.733636 -81.132664 
L 78.987273 -80.781486 
L 79.240909 -80.432891 
L 79.494545 -80.086893 
L 79.748182 -79.743508 
L 80.001818 -79.402748 
L 80.255455 -79.064628 
L 80.509091 -78.729161 
L 80.762727 -78.396361 
L 81.016364 -78.066241 
L 81.27 -77.738814 
L 81.523636 -77.414094 
L 81.777273 -77.092093 
L 82.030909 -76.772824 
L 82.284545 -76.456299 
L 82.538182 -76.142531 
L 82.791818 -75.831532 
L 83.045455 -75.523314 
L 83.299091 -75.21789 
L 83.552727 -74.915269 
L 83.806364 -74.615465 
L 84.06 -74.318488 
L 84.313636 -74.02435 
L 84.567273 -73.733061 
L 84.820909 -73.444633 
L 85.074545 -73.159075 
L 85.328182 -72.876399 
L 85.581818 -72.596615 
L 85.835455 -72.319732 
L 86.089091 -72.045761 
L 86.342727 -71.774711 
L 86.596364 -71.506592 
L 86.85 -71.241413 
L 87.103636 -70.979183 
L 87.357273 -70.719911 
L 87.610909 -70.463607 
L 87.864545 -70.210277 
L 88.118182 -69.959932 
L 88.371818 -69.712578 
L 88.625455 -69.468224 
L 88.879091 -69.226878 
L 89.132727 -68.988547 
L 89.386364 -68.753239 
L 89.64 -68.52096 
L 89.893636 -68.291718 
L 90.147273 -68.065519 
L 90.400909 -67.84237 
L 90.654545 -67.622278 
L 90.908182 -67.405248 
L 91.161818 -67.191286 
L 91.415455 -66.980399 
L 91.669091 -66.772591 
L 91.922727 -66.567868 
L 92.176364 -66.366234 
L 92.43 -66.167696 
L 92.683636 -65.972257 
L 92.937273 -65.779922 
L 93.190909 -65.590695 
L 93.444545 -65.404581 
L 93.698182 -65.221582 
L 93.951818 -65.041703 
L 94.205455 -64.864947 
L 94.459091 -64.691317 
L 94.712727 -64.520816 
L 94.966364 -64.353447 
L 95.22 -64.189212 
L 95.473636 -64.028113 
L 95.727273 -63.870153 
L 95.980909 -63.715333 
L 96.234545 -63.563655 
L 96.488182 -63.415121 
L 96.741818 -63.269731 
L 96.995455 -63.127486 
L 97.249091 -62.988388 
L 97.502727 -62.852436 
L 97.756364 -62.719631 
L 98.01 -62.589972 
L 98.263636 -62.463461 
L 98.517273 -62.340095 
L 98.770909 -62.219876 
L 99.024545 -62.1028 
L 99.278182 -61.988869 
L 99.531818 -61.878079 
L 99.785455 -61.77043 
L 100.039091 -61.66592 
L 100.292727 -61.564547 
L 100.546364 -61.466308 
L 100.8 -61.371201 
L 101.053636 -61.279224 
L 101.307273 -61.190373 
L 101.560909 -61.104645 
L 101.814545 -61.022036 
L 102.068182 -60.942544 
L 102.321818 -60.866163 
L 102.575455 -60.792891 
L 102.829091 -60.722722 
L 103.082727 -60.655653 
L 103.336364 -60.591677 
L 103.59 -60.530791 
L 103.843636 -60.472989 
L 104.097273 -60.418265 
L 104.350909 -60.366613 
L 104.604545 -60.318029 
L 104.858182 -60.272504 
L 105.111818 -60.230034 
L 105.365455 -60.190611 
L 105.619091 -60.154228 
L 105.872727 -60.120878 
L 106.126364 -60.090555 
L 106.38 -60.063249 
L 106.633636 -60.038954 
L 106.887273 -60.017661 
L 107.140909 -59.999362 
L 107.394545 -59.984048 
L 107.648182 -59.971712 
L 107.901818 -59.962342 
L 108.155455 -59.955932 
L 108.409091 -59.95247 
L 108.662727 -59.951947 
L 108.916364 -59.954354 
L 109.17 -59.95968 
L 109.423636 -59.967915 
L 109.677273 -59.979048 
L 109.930909 -59.993068 
L 110.184545 -60.009965 
L 110.438182 -60.029727 
L 110.691818 -60.052342 
L 110.945455 -60.077799 
L 111.199091 -60.106086 
L 111.452727 -60.137191 
L 111.706364 -60.171101 
L 111.96 -60.207804 
L 112.213636 -60.247286 
L 112.467273 -60.289535 
L 112.720909 -60.334538 
L 112.974545 -60.38228 
L 113.228182 -60.432749 
L 113.481818 -60.48593 
L 113.735455 -60.541809 
L 113.989091 -60.600371 
L 114.242727 -60.661603 
L 114.496364 -60.725489 
L 114.75 -60.792015 
L 115.003636 -60.861164 
L 115.257273 -60.932922 
L 115.510909 -61.007273 
L 115.764545 -61.084201 
L 116.018182 -61.16369 
L 116.271818 -61.245724 
L 116.525455 -61.330286 
L 116.779091 -61.41736 
L 117.032727 -61.506928 
L 117.286364 -61.598974 
L 117.54 -61.69348 
L 117.793636 -61.790429 
L 118.047273 -61.889804 
L 118.300909 -61.991585 
L 118.554545 -62.095755 
L 118.808182 -62.202297 
L 119.061818 -62.31119 
L 119.315455 -62.422418 
L 119.569091 -62.53596 
L 119.822727 -62.651798 
L 120.076364 -62.769913 
L 120.33 -62.890285 
L 120.583636 -63.012894 
L 120.837273 -63.137721 
L 121.090909 -63.264746 
L 121.344545 -63.393948 
L 121.598182 -63.525308 
L 121.851818 -63.658805 
L 122.105455 -63.794417 
L 122.359091 -63.932126 
L 122.612727 -64.071908 
L 122.866364 -64.213743 
L 123.12 -64.35761 
L 123.373636 -64.503487 
L 123.627273 -64.651353 
L 123.880909 -64.801186 
L 124.134545 -64.952963 
L 124.388182 -65.106662 
L 124.641818 -65.262261 
L 124.895455 -65.419739 
L 125.149091 -65.579071 
L 125.402727 -65.740235 
L 125.656364 -65.903208 
L 125.91 -66.067968 
L 126.163636 -66.234491 
L 126.417273 -66.402753 
L 126.670909 -66.572731 
L 126.924545 -66.744402 
L 127.178182 -66.917741 
L 127.431818 -67.092724 
L 127.685455 -67.269329 
L 127.939091 -67.447529 
L 128.192727 -67.627302 
L 128.446364 -67.808623 
L 128.7 -67.991466 
L 128.953636 -68.175808 
L 129.207273 -68.361623 
L 129.460909 -68.548887 
L 129.714545 -68.737574 
L 129.968182 -68.92766 
L 130.221818 -69.119119 
L 130.475455 -69.311926 
L 130.729091 -69.506055 
L 130.982727 -69.701481 
L 131.236364 -69.898178 
L 131.49 -70.09612 
L 131.743636 -70.295281 
L 131.997273 -70.495636 
L 132.250909 -70.697158 
L 132.504545 -70.899821 
L 132.758182 -71.103599 
L 133.011818 -71.308466 
L 133.265455 -71.514395 
L 133.519091 -71.72136 
L 133.772727 -71.929334 
L 134.026364 -72.138291 
L 134.28 -72.348203 
L 134.533636 -72.559045 
L 134.787273 -72.770789 
L 135.040909 -72.983409 
L 135.294545 -73.196877 
L 135.548182 -73.411166 
L 135.801818 -73.62625 
L 136.055455 -73.842101 
L 136.309091 -74.058693 
L 136.562727 -74.275997 
L 136.816364 -74.493987 
L 137.07 -74.712636 
L 137.323636 -74.931916 
L 137.577273 -75.1518 
L 137.830909 -75.37226 
L 138.084545 -75.593269 
L 138.338182 -75.8148 
L 138.591818 -76.036825 
L 138.845455 -76.259316 
L 139.099091 -76.482247 
L 139.352727 -76.70559 
L 139.606364 -76.929317 
L 139.86 -77.1534 
L 140.113636 -77.377813 
L 140.367273 -77.602527 
L 140.620909 -77.827515 
L 140.874545 -78.05275 
L 141.128182 -78.278204 
L 141.381818 -78.50385 
L 141.635455 -78.729659 
L 141.889091 -78.955605 
L 142.142727 -79.181661 
L 142.396364 -79.407798 
L 142.65 -79.633989 
L 142.903636 -79.860208 
L 143.157273 -80.086426 
L 143.410909 -80.312616 
L 143.664545 -80.538751 
L 143.918182 -80.764804 
L 144.171818 -80.990748 
L 144.425455 -81.216555 
L 144.679091 -81.442199 
L 144.932727 -81.667652 
L 145.186364 -81.892887 
L 145.44 -82.117878 
L 145.693636 -82.342597 
L 145.947273 -82.567018 
L 146.200909 -82.791115 
L 146.454545 -83.014859 
L 146.708182 -83.238226 
L 146.961818 -83.461188 
L 147.215455 -83.683719 
L 147.469091 -83.905792 
L 147.722727 -84.127382 
L 147.976364 -84.348463 
L 148.23 -84.569007 
L 148.483636 -84.78899 
L 148.737273 -85.008385 
L 148.990909 -85.227166 
L 149.244545 -85.445309 
L 149.498182 -85.662787 
L 149.751818 -85.879575 
L 150.005455 -86.095647 
L 150.259091 -86.310979 
L 150.512727 -86.525546 
L 150.766364 -86.739322 
L 151.02 -86.952282 
L 151.273636 -87.164403 
L 151.527273 -87.375658 
L 151.780909 -87.586025 
L 152.034545 -87.795479 
L 152.288182 -88.003995 
L 152.541818 -88.211549 
L 152.795455 -88.418118 
L 153.049091 -88.623678 
L 153.302727 -88.828206 
L 153.556364 -89.031678 
L 153.81 -89.23407 
L 154.063636 -89.43536 
L 154.317273 -89.635526 
L 154.570909 -89.834543 
L 154.824545 -90.03239 
L 155.078182 -90.229044 
L 155.331818 -90.424484 
L 155.585455 -90.618686 
L 155.839091 -90.81163 
L 156.092727 -91.003293 
L 156.346364 -91.193654 
L 156.6 -91.382692 
L 156.853636 -91.570386 
L 157.107273 -91.756715 
L 157.360909 -91.941658 
L 157.614545 -92.125195 
L 157.868182 -92.307305 
L 158.121818 -92.487969 
L 158.375455 -92.667166 
L 158.629091 -92.844877 
L 158.882727 -93.021082 
L 159.136364 -93.194707 
L 159.39 -92.781327 
L 159.643636 -92.369102 
L 159.897273 -91.959128 
L 160.150909 -91.551446 
L 160.404545 -91.146099 
L 160.658182 -90.743126 
L 160.911818 -90.342568 
L 161.165455 -89.944466 
L 161.419091 -89.54886 
L 161.672727 -89.155791 
L 161.926364 -88.765298 
L 162.18 -88.377421 
L 162.433636 -87.9922 
L 162.687273 -87.609674 
L 162.940909 -87.229882 
L 163.194545 -86.852865 
L 163.448182 -86.47866 
L 163.701818 -86.107306 
L 163.955455 -85.738842 
L 164.209091 -85.373306 
L 164.462727 -85.010736 
L 164.716364 -84.65117 
L 164.97 -84.294647 
L 165.223636 -83.941202 
L 165.477273 -83.590874 
L 165.730909 -83.243699 
L 165.984545 -82.899714 
L 166.238182 -82.558956 
L 166.491818 -82.221462 
L 166.745455 -81.887266 
L 166.999091 -81.556405 
L 167.252727 -81.228915 
L 167.506364 -80.904831 
L 167.76 -80.584188 
L 168.013636 -80.26702 
L 168.267273 -79.953362 
L 168.520909 -79.64325 
L 168.774545 -79.336715 
L 169.028182 -79.033793 
L 169.281818 -78.734517 
L 169.535455 -78.438919 
L 169.789091 -78.147033 
L 170.042727 -77.858892 
L 170.296364 -77.574527 
L 170.55 -77.293971 
L 170.803636 -77.017256 
L 171.057273 -76.744412 
L 171.310909 -76.475472 
L 171.564545 -76.210465 
L 171.818182 -75.949422 
L 172.071818 -75.692375 
L 172.325455 -75.439351 
L 172.579091 -75.190382 
L 172.832727 -74.945496 
L 173.086364 -74.704722 
L 173.34 -74.468089 
L 173.593636 -74.235625 
L 173.847273 -74.007358 
L 174.100909 -73.783316 
L 174.354545 -73.563526 
L 174.608182 -73.348014 
L 174.861818 -73.136808 
L 175.115455 -72.929933 
L 175.369091 -72.727416 
L 175.622727 -72.529282 
L 175.876364 -72.335557 
L 176.13 -72.146264 
L 176.383636 -71.961429 
L 176.637273 -71.781075 
L 176.890909 -71.605227 
L 177.144545 -71.433908 
L 177.398182 -71.26714 
L 177.651818 -71.104947 
L 177.905455 -70.947351 
L 178.159091 -70.794373 
L 178.412727 -70.646035 
L 178.666364 -70.502359 
L 178.92 -70.363364 
L 179.173636 -70.229072 
L 179.427273 -70.099502 
L 179.680909 -69.974675 
L 179.934545 -69.854608 
L 180.188182 -69.739321 
L 180.441818 -69.628833 
L 180.695455 -69.523161 
L 180.949091 -69.422323 
L 181.202727 -69.326336 
L 181.456364 -69.235218 
L 181.71 -69.148984 
L 181.963636 -69.067651 
L 182.217273 -68.991233 
L 182.470909 -68.919748 
L 182.724545 -68.853208 
L 182.978182 -68.791629 
L 183.231818 -68.735025 
L 183.485455 -68.683409 
L 183.739091 -68.636794 
L 183.992727 -68.595193 
L 184.246364 -68.558619 
L 184.5 -68.527083 
L 184.753636 -68.500596 
L 185.007273 -68.479171 
L 185.260909 -68.462817 
L 185.514545 -68.451545 
L 185.768182 -68.445365 
L 186.021818 -68.444285 
L 186.275455 -68.448316 
L 186.529091 -68.457465 
L 186.782727 -68.471741 
L 187.036364 -68.49115 
L 187.29 -68.515702 
L 187.543636 -68.545402 
L 187.797273 -68.580256 
L 188.050909 -68.620271 
L 188.304545 -68.665453 
L 188.558182 -68.715806 
L 188.811818 -68.771335 
L 189.065455 -68.832044 
L 189.319091 -68.897937 
L 189.572727 -68.969018 
L 189.826364 -69.04529 
L 190.08 -69.126754 
L 190.333636 -69.213414 
L 190.587273 -69.30527 
L 190.840909 -69.402325 
L 191.094545 -69.504578 
L 191.348182 -69.61203 
L 191.601818 -69.724682 
L 191.855455 -69.842532 
L 192.109091 -69.965579 
L 192.362727 -70.093823 
L 192.616364 -70.227262 
L 192.87 -70.365892 
L 193.123636 -70.509713 
L 193.377273 -70.658719 
L 193.630909 -70.812909 
L 193.884545 -70.972278 
L 194.138182 -71.136822 
L 194.391818 -71.306535 
L 194.645455 -71.481414 
L 194.899091 -71.661451 
L 195.152727 -71.846641 
L 195.406364 -72.036977 
L 195.66 -72.232453 
L 195.913636 -72.433061 
L 196.167273 -72.638794 
L 196.420909 -72.849642 
L 196.674545 -73.065598 
L 196.928182 -73.286652 
L 197.181818 -73.512796 
L 197.435455 -73.744018 
L 197.689091 -73.980309 
L 197.942727 -74.221659 
L 198.196364 -74.468055 
L 198.45 -74.719487 
L 198.703636 -74.975942 
L 198.957273 -75.237408 
L 199.210909 -75.503872 
L 199.464545 -75.775322 
L 199.718182 -76.051743 
L 199.971818 -76.333121 
L 200.225455 -76.619443 
L 200.479091 -76.910693 
L 200.732727 -77.206856 
L 200.986364 -77.507916 
L 201.24 -77.813858 
L 201.493636 -78.124665 
L 201.747273 -78.44032 
L 202.000909 -78.760806 
L 202.254545 -79.086106 
L 202.508182 -79.416201 
L 202.761818 -79.751073 
L 203.015455 -80.090704 
L 203.269091 -80.435074 
L 203.522727 -80.784164 
L 203.776364 -81.137954 
L 204.03 -81.496424 
L 204.283636 -81.859552 
L 204.537273 -82.227319 
L 204.790909 -82.599702 
L 205.044545 -82.976681 
L 205.298182 -83.358232 
L 205.551818 -83.744333 
L 205.805455 -84.134962 
L 206.059091 -84.530095 
L 206.312727 -84.929709 
L 206.566364 -85.33378 
L 206.82 -85.742283 
L 207.073636 -86.155195 
L 207.327273 -86.572489 
L 207.580909 -86.994141 
L 207.834545 -87.420125 
L 208.088182 -87.850416 
L 208.341818 -88.284986 
L 208.595455 -88.723809 
L 208.849091 -89.166858 
L 209.102727 -89.614107 
L 209.356364 -90.065526 
L 209.61 -90.521087 
L 209.863636 -90.979708 
L 210.117273 -90.853242 
L 210.370909 -90.726125 
L 210.624545 -90.599443 
L 210.878182 -90.473231 
L 211.131818 -90.347518 
L 211.385455 -90.222337 
L 211.639091 -90.097719 
L 211.892727 -89.973697 
L 212.146364 -89.850302 
L 212.4 -89.727565 
L 212.653636 -89.605519 
L 212.907273 -89.484195 
L 213.160909 -89.363625 
L 213.414545 -89.243842 
L 213.668182 -89.124875 
L 213.921818 -89.006758 
L 214.175455 -88.889523 
L 214.429091 -88.7732 
L 214.682727 -88.657821 
L 214.936364 -88.543419 
L 215.19 -88.430024 
L 215.443636 -88.317669 
L 215.697273 -88.206385 
L 215.950909 -88.096203 
L 216.204545 -87.987155 
L 216.458182 -87.879273 
L 216.711818 -87.772587 
L 216.965455 -87.66713 
L 217.219091 -87.562932 
L 217.472727 -87.460024 
L 217.726364 -87.358438 
L 217.98 -87.258205 
L 218.233636 -87.159355 
L 218.487273 -87.06192 
L 218.740909 -86.96593 
L 218.994545 -86.871417 
L 219.248182 -86.77841 
L 219.501818 -86.68694 
L 219.755455 -86.597039 
L 220.009091 -86.508735 
L 220.262727 -86.422059 
L 220.516364 -86.337042 
L 220.77 -86.253713 
L 221.023636 -86.172103 
L 221.277273 -86.092241 
L 221.530909 -86.014157 
L 221.784545 -85.937879 
L 222.038182 -85.863439 
L 222.291818 -85.790865 
L 222.545455 -85.720185 
L 222.799091 -85.65143 
L 223.052727 -85.584628 
L 223.306364 -85.519807 
L 223.56 -85.456997 
L 223.813636 -85.396225 
L 224.067273 -85.33752 
L 224.320909 -85.280909 
L 224.574545 -85.226422 
L 224.828182 -85.174085 
L 225.081818 -85.123926 
L 225.335455 -85.075973 
L 225.589091 -85.030253 
L 225.842727 -84.986792 
L 226.096364 -84.945618 
L 226.35 -84.906758 
L 226.603636 -84.870237 
L 226.857273 -84.836082 
L 227.110909 -84.80432 
L 227.364545 -84.774976 
L 227.618182 -84.748075 
L 227.871818 -84.723644 
L 228.125455 -84.701707 
L 228.379091 -84.682291 
L 228.632727 -84.665418 
L 228.886364 -84.651115 
L 229.14 -84.639405 
L 229.393636 -84.630313 
L 229.647273 -84.623863 
L 229.900909 -84.620079 
L 230.154545 -84.618983 
L 230.408182 -84.6206 
L 230.661818 -84.624952 
L 230.915455 -84.632063 
L 231.169091 -84.641954 
L 231.422727 -84.654648 
L 231.676364 -84.670167 
L 231.93 -84.688534 
L 232.183636 -84.709769 
L 232.437273 -84.733894 
L 232.690909 -84.76093 
L 232.944545 -84.790897 
L 233.198182 -84.823818 
L 233.451818 -84.85971 
L 233.705455 -84.898596 
L 233.959091 -84.940494 
L 234.212727 -84.985423 
L 234.466364 -85.033404 
L 234.72 -85.084455 
L 234.973636 -85.138595 
L 235.227273 -85.195842 
L 235.480909 -85.256214 
L 235.734545 -85.319729 
L 235.988182 -85.386405 
L 236.241818 -85.456259 
L 236.495455 -85.529307 
L 236.749091 -85.605567 
L 237.002727 -85.685055 
L 237.256364 -85.767786 
L 237.51 -85.853778 
L 237.763636 -85.943045 
L 238.017273 -86.035602 
L 238.270909 -86.131465 
L 238.524545 -86.230647 
L 238.778182 -86.333164 
L 239.031818 -86.439029 
L 239.285455 -86.548256 
L 239.539091 -86.660858 
L 239.792727 -86.776849 
L 240.046364 -86.896241 
L 240.3 -87.019046 
L 240.553636 -87.145277 
L 240.807273 -87.274945 
L 241.060909 -87.408062 
L 241.314545 -87.54464 
L 241.568182 -87.684688 
L 241.821818 -87.828218 
L 242.075455 -87.97524 
L 242.329091 -88.125763 
L 242.582727 -88.279798 
L 242.836364 -88.437353 
L 243.09 -88.598438 
L 243.343636 -88.76306 
L 243.597273 -88.931229 
L 243.850909 -89.102952 
L 244.104545 -89.278237 
L 244.358182 -89.457091 
L 244.611818 -89.639521 
L 244.865455 -89.825534 
L 245.119091 -90.015136 
L 245.372727 -90.208333 
L 245.626364 -90.40513 
L 245.88 -90.605534 
L 246.133636 -90.809548 
L 246.387273 -91.017178 
L 246.640909 -91.228428 
L 246.894545 -91.443302 
L 247.148182 -91.661803 
L 247.401818 -91.883935 
L 247.655455 -92.109701 
L 247.909091 -92.339103 
L 248.162727 -92.572143 
L 248.416364 -92.808825 
L 248.67 -93.049149 
L 248.923636 -93.293116 
L 249.177273 -93.540728 
L 249.430909 -93.791985 
L 249.684545 -94.046887 
L 249.938182 -94.305435 
L 250.191818 -94.567628 
L 250.445455 -94.833466 
L 250.699091 -95.102946 
L 250.952727 -95.376069 
L 251.206364 -95.652832 
L 251.46 -95.933233 
L 251.713636 -96.217269 
L 251.967273 -96.504939 
L 252.220909 -96.796239 
L 252.474545 -97.091165 
L 252.728182 -97.389714 
L 252.981818 -97.691883 
L 253.235455 -97.997665 
L 253.489091 -98.307058 
L 253.742727 -98.620055 
L 253.996364 -98.936652 
L 254.25 -99.256843 
L 254.503636 -99.580621 
L 254.757273 -99.907981 
L 255.010909 -100.238916 
L 255.264545 -100.573418 
L 255.518182 -100.911481 
L 255.771818 -101.253097 
L 256.025455 -101.598258 
L 256.279091 -101.946956 
L 256.532727 -102.299181 
L 256.786364 -102.654926 
L 257.04 -103.014181 
L 257.293636 -103.376936 
L 257.547273 -103.743182 
L 257.800909 -104.112909 
L 258.054545 -104.486105 
L 258.308182 -104.862761 
L 258.561818 -105.242864 
L 258.815455 -105.626405 
L 259.069091 -106.01337 
L 259.322727 -106.403749 
L 259.576364 -106.797528 
L 259.83 -107.194695 
L 260.083636 -107.595238 
L 260.337273 -107.999142 
L 260.590909 -108.406395 
L 260.844545 -108.816983 
L 261.098182 -109.230891 
L 261.351818 -109.648106 
L 261.605455 -110.068612 
L 261.859091 -110.492394 
L 262.112727 -110.919438 
L 262.366364 -111.349727 
L 262.62 -111.783247 
L 262.873636 -112.21998 
L 263.127273 -112.659911 
L 263.380909 -113.103022 
L 263.634545 -113.549297 
L 263.888182 -113.998719 
L 264.141818 -114.45127 
L 264.395455 -114.906932 
L 264.649091 -115.365688 
L 264.902727 -115.827519 
L 265.156364 -116.292406 
L 265.41 -116.760331 
L 265.663636 -117.231274 
L 265.917273 -117.705217 
L 266.170909 -118.18214 
L 266.424545 -118.662022 
L 266.678182 -119.144844 
L 266.931818 -119.630586 
L 267.185455 -120.119226 
L 267.439091 -120.610744 
L 267.692727 -121.105119 
L 267.946364 -121.60233 
L 268.2 -122.102355 
L 268.453636 -122.605172 
L 268.707273 -123.11076 
L 268.960909 -123.619095 
L 269.214545 -124.130156 
L 269.468182 -124.64392 
L 269.721818 -125.160364 
L 269.975455 -125.679464 
L 270.229091 -126.201198 
L 270.482727 -126.725542 
L 270.736364 -127.252472 
L 270.99 -127.781964 
L 271.243636 -128.313994 
L 271.497273 -128.848537 
L 271.750909 -129.385569 
L 272.004545 -129.925065 
L 272.258182 -130.467 
L 272.511818 -131.011348 
L 272.765455 -131.558086 
L 273.019091 -132.107186 
L 273.272727 -132.658623 
L 273.526364 -133.212371 
L 273.78 -133.768404 
L 274.033636 -134.326696 
L 274.287273 -134.88722 
L 274.540909 -135.44995 
L 274.794545 -136.014858 
L 275.048182 -136.581918 
L 275.301818 -137.151103 
L 275.555455 -137.722385 
L 275.809091 -138.295736 
L 276.062727 -138.87113 
L 276.316364 -139.448538 
L 276.57 -140.027932 
L 276.823636 -140.609285 
L 277.077273 -141.192568 
L 277.330909 -141.777753 
L 277.584545 -142.36481 
L 277.838182 -142.953713 
L 278.091818 -143.544431 
L 278.345455 -144.136936 
L 278.599091 -144.7312 
L 278.852727 -145.327192 
L 279.106364 -145.924883 
L 279.36 -146.524245 
L 279.613636 -147.125247 
L 279.867273 -147.72786 
L 280.120909 -148.332054 
L 280.374545 -148.9378 
L 280.628182 -149.545068 
L 280.881818 -150.153827 
L 281.135455 -150.764047 
L 281.389091 -151.375699 
L 281.642727 -151.988751 
L 281.896364 -152.603174 
L 282.15 -153.218937 
L 282.403636 -153.83601 
L 282.657273 -154.454361 
L 282.910909 -155.07396 
L 283.164545 -155.694777 
L 283.418182 -156.31678 
L 283.671818 -156.939939 
L 283.925455 -157.564222 
L 284.179091 -158.189599 
L 284.432727 -158.816038 
L 284.686364 -159.443509 
L 284.94 -160.071979 
L 285.193636 -160.701419 
L 285.447273 -161.331796 
L 285.700909 -161.963079 
L 285.954545 -162.595237 
L 286.208182 -163.228239 
L 286.461818 -163.862052 
L 286.715455 -164.496646 
L 286.969091 -165.131989 
L 287.222727 -165.76805 
L 287.476364 -166.404796 
L 287.73 -167.042197 
L 287.983636 -167.680221 
L 288.237273 -168.318836 
L 288.490909 -168.95801 
L 288.744545 -169.597713 
L 288.998182 -170.237912 
L 289.251818 -170.878576 
L 289.505455 -171.519673 
L 289.759091 -172.161172 
L 290.012727 -172.803041 
L 290.266364 -173.445248 
L 290.52 -174.087763 
L 290.773636 -174.730552 
L 291.027273 -175.373586 
L 291.280909 -176.016832 
L 291.534545 -176.660259 
L 291.788182 -177.303835 
L 292.041818 -177.94753 
L 292.295455 -178.591311 
L 292.549091 -179.235148 
L 292.802727 -179.879009 
L 293.056364 -180.522862 
L 293.31 -181.166678 
L 293.563636 -181.810424 
L 293.817273 -182.454069 
L 294.070909 -183.097583 
L 294.324545 -183.740934 
L 294.578182 -184.384092 
L 294.831818 -185.027025 
L 295.085455 -185.669703 
L 295.339091 -186.312096 
L 295.592727 -186.954171 
L 295.846364 -187.5959 
L 296.1 -188.237251 
L 296.353636 -188.878195 
L 296.607273 -189.5187 
L 296.860909 -190.158736 
L 297.114545 -190.798273 
L 297.368182 -191.437282 
L 297.621818 -192.075732 
L 297.875455 -192.713594 
L 298.129091 -193.350837 
L 298.382727 -193.987431 
L 298.636364 -194.623349 
L 298.89 -195.258559 
L 299.143636 -195.893032 
L 299.397273 -196.52674 
L 299.650909 -197.159653 
L 299.904545 -197.791742 
L 300.158182 -198.422978 
L 300.411818 -199.053332 
L 300.665455 -199.682776 
L 300.919091 -200.311282 
L 301.172727 -200.93882 
L 301.426364 -201.565363 
L 301.68 -202.190882 
L 301.933636 -202.815349 
L 302.187273 -203.438737 
L 302.440909 -204.061018 
L 302.694545 -204.682164 
L 302.948182 -205.302148 
L 303.201818 -205.920942 
L 303.455455 -206.53852 
L 303.709091 -207.154853 
L 303.962727 -207.769917 
L 304.216364 -208.383683 
L 304.47 -208.996125 
L 304.723636 -209.607217 
L 304.977273 -210.216933 
L 305.230909 -210.825246 
L 305.484545 -211.432131 
L 305.738182 -212.037562 
L 305.991818 -212.641513 
L 306.245455 -213.24396 
L 306.499091 -213.844876 
L 306.752727 -214.444238 
L 307.006364 -215.042019 
L 307.26 -215.638195 
L 307.513636 -216.232742 
L 307.767273 -216.825636 
L 308.020909 -217.416852 
L 308.274545 -218.006367 
L 308.528182 -218.594156 
L 308.781818 -219.180196 
L 309.035455 -219.764464 
L 309.289091 -220.346937 
L 309.542727 -220.927591 
L 309.796364 -221.506404 
L 310.05 -222.083353 
L 310.303636 -222.658416 
L 310.557273 -223.23157 
L 310.810909 -223.802794 
L 311.064545 -224.372065 
L 311.318182 -224.938306 
L 311.318182 -224.940424 
L 311.318182 -224.940424 
L 311.064545 -225.326576 
L 310.810909 -225.710287 
L 310.557273 -226.090474 
L 310.303636 -226.467113 
L 310.05 -226.84018 
L 309.796364 -227.209651 
L 309.542727 -227.575502 
L 309.289091 -227.93771 
L 309.035455 -228.29625 
L 308.781818 -228.6511 
L 308.528182 -229.002237 
L 308.274545 -229.349636 
L 308.020909 -229.693277 
L 307.767273 -230.033135 
L 307.513636 -230.369188 
L 307.26 -230.701414 
L 307.006364 -231.029791 
L 306.752727 -231.354296 
L 306.499091 -231.674908 
L 306.245455 -231.991605 
L 305.991818 -232.304366 
L 305.738182 -232.613169 
L 305.484545 -232.917993 
L 305.230909 -233.218817 
L 304.977273 -233.515621 
L 304.723636 -233.808383 
L 304.47 -234.097083 
L 304.216364 -234.381702 
L 303.962727 -234.662219 
L 303.709091 -234.938614 
L 303.455455 -235.210868 
L 303.201818 -235.478961 
L 302.948182 -235.742875 
L 302.694545 -236.002589 
L 302.440909 -236.258085 
L 302.187273 -236.509346 
L 301.933636 -236.756351 
L 301.68 -236.999083 
L 301.426364 -237.237525 
L 301.172727 -237.471658 
L 300.919091 -237.701464 
L 300.665455 -237.926928 
L 300.411818 -238.14803 
L 300.158182 -238.364755 
L 299.904545 -238.577085 
L 299.650909 -238.785005 
L 299.397273 -238.988498 
L 299.143636 -239.187549 
L 298.89 -239.38214 
L 298.636364 -239.572258 
L 298.382727 -239.757886 
L 298.129091 -239.939009 
L 297.875455 -240.115613 
L 297.621818 -240.287684 
L 297.368182 -240.455205 
L 297.114545 -240.618165 
L 296.860909 -240.776548 
L 296.607273 -240.930342 
L 296.353636 -241.079532 
L 296.1 -241.224106 
L 295.846364 -241.36405 
L 295.592727 -241.499353 
L 295.339091 -241.630001 
L 295.085455 -241.755983 
L 294.831818 -241.877286 
L 294.578182 -241.993899 
L 294.324545 -242.105812 
L 294.070909 -242.213011 
L 293.817273 -242.315488 
L 293.563636 -242.41323 
L 293.31 -242.506228 
L 293.056364 -242.594472 
L 292.802727 -242.677952 
L 292.549091 -242.756658 
L 292.295455 -242.830582 
L 292.041818 -242.899713 
L 291.788182 -242.964044 
L 291.534545 -243.023565 
L 291.280909 -243.078269 
L 291.027273 -243.128148 
L 290.773636 -243.173194 
L 290.52 -243.2134 
L 290.266364 -243.248758 
L 290.012727 -243.279262 
L 289.759091 -243.304905 
L 289.505455 -243.325681 
L 289.251818 -243.341584 
L 288.998182 -243.352609 
L 288.744545 -243.358749 
L 288.490909 -243.36 
L 288.237273 -243.356357 
L 287.983636 -243.347815 
L 287.73 -243.33437 
L 287.476364 -243.316017 
L 287.222727 -243.292755 
L 286.969091 -243.264577 
L 286.715455 -243.231483 
L 286.461818 -243.193468 
L 286.208182 -243.150531 
L 285.954545 -243.102669 
L 285.700909 -243.049879 
L 285.447273 -242.992161 
L 285.193636 -242.929513 
L 284.94 -242.861934 
L 284.686364 -242.789423 
L 284.432727 -242.711979 
L 284.179091 -242.629603 
L 283.925455 -242.542294 
L 283.671818 -242.450052 
L 283.418182 -242.35288 
L 283.164545 -242.250777 
L 282.910909 -242.143744 
L 282.657273 -242.031784 
L 282.403636 -241.914898 
L 282.15 -241.793089 
L 281.896364 -241.666358 
L 281.642727 -241.534709 
L 281.389091 -241.398145 
L 281.135455 -241.256669 
L 280.881818 -241.110285 
L 280.628182 -240.958997 
L 280.374545 -240.802808 
L 280.120909 -240.641725 
L 279.867273 -240.475751 
L 279.613636 -240.304892 
L 279.36 -240.129154 
L 279.106364 -239.948542 
L 278.852727 -239.763062 
L 278.599091 -239.57272 
L 278.345455 -239.377525 
L 278.091818 -239.177481 
L 277.838182 -238.972598 
L 277.584545 -238.762883 
L 277.330909 -238.548342 
L 277.077273 -238.328986 
L 276.823636 -238.104822 
L 276.57 -237.875859 
L 276.316364 -237.642107 
L 276.062727 -237.403575 
L 275.809091 -237.160272 
L 275.555455 -236.912209 
L 275.301818 -236.659397 
L 275.048182 -236.401846 
L 274.794545 -236.139566 
L 274.540909 -235.87257 
L 274.287273 -235.600869 
L 274.033636 -235.324475 
L 273.78 -235.0434 
L 273.526364 -234.757657 
L 273.272727 -234.467258 
L 273.019091 -234.172217 
L 272.765455 -233.872548 
L 272.511818 -233.568264 
L 272.258182 -233.259378 
L 272.004545 -232.945906 
L 271.750909 -232.627863 
L 271.497273 -232.305262 
L 271.243636 -231.97812 
L 270.99 -231.646452 
L 270.736364 -231.310274 
L 270.482727 -230.969603 
L 270.229091 -230.624454 
L 269.975455 -230.274844 
L 269.721818 -229.920791 
L 269.468182 -229.562312 
L 269.214545 -229.199424 
L 268.960909 -228.832147 
L 268.707273 -228.460497 
L 268.453636 -228.084494 
L 268.2 -227.704156 
L 267.946364 -227.319503 
L 267.692727 -226.930554 
L 267.439091 -226.537329 
L 267.185455 -226.139848 
L 266.931818 -225.738131 
L 266.678182 -225.332199 
L 266.424545 -224.922073 
L 266.170909 -224.507774 
L 265.917273 -224.089324 
L 265.663636 -223.666744 
L 265.41 -223.240057 
L 265.156364 -222.809285 
L 264.902727 -222.37445 
L 264.649091 -221.935577 
L 264.395455 -221.492686 
L 264.141818 -221.045804 
L 263.888182 -220.594952 
L 263.634545 -220.140156 
L 263.380909 -219.681439 
L 263.127273 -219.218827 
L 262.873636 -218.752344 
L 262.62 -218.282015 
L 262.366364 -217.807866 
L 262.112727 -217.329923 
L 261.859091 -216.848211 
L 261.605455 -216.362757 
L 261.351818 -215.873588 
L 261.098182 -215.38073 
L 260.844545 -214.884211 
L 260.590909 -214.384058 
L 260.337273 -213.880297 
L 260.083636 -213.372959 
L 259.83 -212.862069 
L 259.576364 -212.347658 
L 259.322727 -211.829754 
L 259.069091 -211.308384 
L 258.815455 -210.78358 
L 258.561818 -210.25537 
L 258.308182 -209.723784 
L 258.054545 -209.188852 
L 257.800909 -208.650604 
L 257.547273 -208.10907 
L 257.293636 -207.564282 
L 257.04 -207.01627 
L 256.786364 -206.465065 
L 256.532727 -205.910699 
L 256.279091 -205.353204 
L 256.025455 -204.792612 
L 255.771818 -204.228954 
L 255.518182 -203.662263 
L 255.264545 -203.092572 
L 255.010909 -202.519913 
L 254.757273 -201.94432 
L 254.503636 -201.365826 
L 254.25 -200.784464 
L 253.996364 -200.200269 
L 253.742727 -199.613274 
L 253.489091 -199.023514 
L 253.235455 -198.431022 
L 252.981818 -197.835835 
L 252.728182 -197.237985 
L 252.474545 -196.637509 
L 252.220909 -196.034443 
L 251.967273 -195.42882 
L 251.713636 -194.820678 
L 251.46 -194.210051 
L 251.206364 -193.596977 
L 250.952727 -192.981491 
L 250.699091 -192.36363 
L 250.445455 -191.743431 
L 250.191818 -191.120931 
L 249.938182 -190.496166 
L 249.684545 -189.869174 
L 249.430909 -189.239993 
L 249.177273 -188.608659 
L 248.923636 -187.975212 
L 248.67 -187.339689 
L 248.416364 -186.702128 
L 248.162727 -186.062567 
L 247.909091 -185.421046 
L 247.655455 -184.777603 
L 247.401818 -184.132276 
L 247.148182 -183.485106 
L 246.894545 -182.83613 
L 246.640909 -182.185389 
L 246.387273 -181.532922 
L 246.133636 -180.878768 
L 245.88 -180.222968 
L 245.626364 -179.565562 
L 245.372727 -178.906589 
L 245.119091 -178.246091 
L 244.865455 -177.584106 
L 244.611818 -176.920677 
L 244.358182 -176.255844 
L 244.104545 -175.589647 
L 243.850909 -174.922128 
L 243.597273 -174.253327 
L 243.343636 -173.583286 
L 243.09 -172.912047 
L 242.836364 -172.239651 
L 242.582727 -171.566139 
L 242.329091 -170.891553 
L 242.075455 -170.215934 
L 241.821818 -169.539326 
L 241.568182 -168.86177 
L 241.314545 -168.183308 
L 241.060909 -167.503982 
L 240.807273 -166.823835 
L 240.553636 -166.142909 
L 240.3 -165.461247 
L 240.046364 -164.778891 
L 239.792727 -164.095885 
L 239.539091 -163.41227 
L 239.285455 -162.728089 
L 239.031818 -162.043387 
L 238.778182 -161.358205 
L 238.524545 -160.672587 
L 238.270909 -159.986576 
L 238.017273 -159.300215 
L 237.763636 -158.613547 
L 237.51 -157.926617 
L 237.256364 -157.239466 
L 237.002727 -156.55214 
L 236.749091 -155.86468 
L 236.495455 -155.177131 
L 236.241818 -154.489537 
L 235.988182 -153.801941 
L 235.734545 -153.114386 
L 235.480909 -152.426917 
L 235.227273 -151.739577 
L 234.973636 -151.05241 
L 234.72 -150.365459 
L 234.466364 -149.678769 
L 234.212727 -148.992383 
L 233.959091 -148.306345 
L 233.705455 -147.6207 
L 233.451818 -146.93549 
L 233.198182 -146.250759 
L 232.944545 -145.566552 
L 232.690909 -144.882913 
L 232.437273 -144.199884 
L 232.183636 -143.517511 
L 231.93 -142.835836 
L 231.676364 -142.154904 
L 231.422727 -141.474758 
L 231.169091 -140.795443 
L 230.915455 -140.117001 
L 230.661818 -139.439477 
L 230.408182 -138.762914 
L 230.154545 -138.087355 
L 229.900909 -137.412845 
L 229.647273 -136.739427 
L 229.393636 -136.067145 
L 229.14 -135.396041 
L 228.886364 -134.726159 
L 228.632727 -134.057542 
L 228.379091 -133.390235 
L 228.125455 -132.724279 
L 227.871818 -132.059718 
L 227.618182 -131.396595 
L 227.364545 -130.734954 
L 227.110909 -130.074836 
L 226.857273 -129.416284 
L 226.603636 -128.759342 
L 226.35 -128.104053 
L 226.096364 -127.450457 
L 225.842727 -126.798598 
L 225.589091 -126.148519 
L 225.335455 -125.500261 
L 225.081818 -124.853867 
L 224.828182 -124.209378 
L 224.574545 -123.566837 
L 224.320909 -122.926284 
L 224.067273 -122.287763 
L 223.813636 -121.651314 
L 223.56 -121.016978 
L 223.306364 -120.384797 
L 223.052727 -119.754813 
L 222.799091 -119.127065 
L 222.545455 -118.501595 
L 222.291818 -117.878443 
L 222.038182 -117.257651 
L 221.784545 -116.639258 
L 221.530909 -116.023304 
L 221.277273 -115.40983 
L 221.023636 -114.798875 
L 220.77 -114.190479 
L 220.516364 -113.584682 
L 220.262727 -112.981523 
L 220.009091 -112.381041 
L 219.755455 -111.783275 
L 219.501818 -111.188264 
L 219.248182 -110.596047 
L 218.994545 -110.006662 
L 218.740909 -109.420147 
L 218.487273 -108.83654 
L 218.233636 -108.255879 
L 217.98 -107.678202 
L 217.726364 -107.103545 
L 217.472727 -106.531947 
L 217.219091 -105.963445 
L 216.965455 -105.398074 
L 216.711818 -104.835871 
L 216.458182 -104.276873 
L 216.204545 -103.721116 
L 215.950909 -103.168636 
L 215.697273 -102.619467 
L 215.443636 -102.073646 
L 215.19 -101.531208 
L 214.936364 -100.992187 
L 214.682727 -100.456618 
L 214.429091 -99.924536 
L 214.175455 -99.395974 
L 213.921818 -98.870966 
L 213.668182 -98.349546 
L 213.414545 -97.831748 
L 213.160909 -97.317603 
L 212.907273 -96.807146 
L 212.653636 -96.300408 
L 212.4 -95.797421 
L 212.146364 -95.298218 
L 211.892727 -94.80283 
L 211.639091 -94.311288 
L 211.385455 -93.823624 
L 211.131818 -93.339868 
L 210.878182 -92.860051 
L 210.624545 -92.384203 
L 210.370909 -91.912354 
L 210.117273 -91.444533 
L 209.863636 -90.981826 
L 209.61 -91.108666 
L 209.356364 -91.236904 
L 209.102727 -91.365453 
L 208.849091 -91.494282 
L 208.595455 -91.623359 
L 208.341818 -91.752652 
L 208.088182 -91.88213 
L 207.834545 -92.011763 
L 207.580909 -92.141518 
L 207.327273 -92.271365 
L 207.073636 -92.401274 
L 206.82 -92.531212 
L 206.566364 -92.661149 
L 206.312727 -92.791055 
L 206.059091 -92.920899 
L 205.805455 -93.05065 
L 205.551818 -93.180277 
L 205.298182 -93.309752 
L 205.044545 -93.439042 
L 204.790909 -93.568119 
L 204.537273 -93.696952 
L 204.283636 -93.825511 
L 204.03 -93.953766 
L 203.776364 -94.081688 
L 203.522727 -94.209248 
L 203.269091 -94.336415 
L 203.015455 -94.463161 
L 202.761818 -94.589456 
L 202.508182 -94.715272 
L 202.254545 -94.840579 
L 202.000909 -94.96535 
L 201.747273 -95.089555 
L 201.493636 -95.213165 
L 201.24 -95.336154 
L 200.986364 -95.458492 
L 200.732727 -95.580152 
L 200.479091 -95.701106 
L 200.225455 -95.821326 
L 199.971818 -95.940786 
L 199.718182 -96.059457 
L 199.464545 -96.177314 
L 199.210909 -96.294328 
L 198.957273 -96.410474 
L 198.703636 -96.525724 
L 198.45 -96.640053 
L 198.196364 -96.753434 
L 197.942727 -96.865842 
L 197.689091 -96.977251 
L 197.435455 -97.087636 
L 197.181818 -97.19697 
L 196.928182 -97.30523 
L 196.674545 -97.41239 
L 196.420909 -97.518425 
L 196.167273 -97.623312 
L 195.913636 -97.727026 
L 195.66 -97.829543 
L 195.406364 -97.93084 
L 195.152727 -98.030892 
L 194.899091 -98.129677 
L 194.645455 -98.227172 
L 194.391818 -98.323353 
L 194.138182 -98.418199 
L 193.884545 -98.511686 
L 193.630909 -98.603794 
L 193.377273 -98.6945 
L 193.123636 -98.783782 
L 192.87 -98.87162 
L 192.616364 -98.957992 
L 192.362727 -99.042877 
L 192.109091 -99.126255 
L 191.855455 -99.208106 
L 191.601818 -99.28841 
L 191.348182 -99.367147 
L 191.094545 -99.444298 
L 190.840909 -99.519842 
L 190.587273 -99.593763 
L 190.333636 -99.66604 
L 190.08 -99.736656 
L 189.826364 -99.805592 
L 189.572727 -99.872831 
L 189.319091 -99.938355 
L 189.065455 -100.002147 
L 188.811818 -100.064191 
L 188.558182 -100.124469 
L 188.304545 -100.182965 
L 188.050909 -100.239663 
L 187.797273 -100.294547 
L 187.543636 -100.347602 
L 187.29 -100.398813 
L 187.036364 -100.448166 
L 186.782727 -100.495644 
L 186.529091 -100.541235 
L 186.275455 -100.584923 
L 186.021818 -100.626697 
L 185.768182 -100.666541 
L 185.514545 -100.704444 
L 185.260909 -100.740393 
L 185.007273 -100.774375 
L 184.753636 -100.806377 
L 184.5 -100.83639 
L 184.246364 -100.8644 
L 183.992727 -100.890397 
L 183.739091 -100.914369 
L 183.485455 -100.936308 
L 183.231818 -100.956201 
L 182.978182 -100.97404 
L 182.724545 -100.989815 
L 182.470909 -101.003517 
L 182.217273 -101.015137 
L 181.963636 -101.024666 
L 181.71 -101.032096 
L 181.456364 -101.037419 
L 181.202727 -101.040627 
L 180.949091 -101.041714 
L 180.695455 -101.040673 
L 180.441818 -101.037496 
L 180.188182 -101.032177 
L 179.934545 -101.024711 
L 179.680909 -101.015092 
L 179.427273 -101.003315 
L 179.173636 -100.989374 
L 178.92 -100.973266 
L 178.666364 -100.954985 
L 178.412727 -100.934528 
L 178.159091 -100.911891 
L 177.905455 -100.887071 
L 177.651818 -100.860064 
L 177.398182 -100.830869 
L 177.144545 -100.799483 
L 176.890909 -100.765903 
L 176.637273 -100.730129 
L 176.383636 -100.692159 
L 176.13 -100.651991 
L 175.876364 -100.609626 
L 175.622727 -100.565063 
L 175.369091 -100.518301 
L 175.115455 -100.469341 
L 174.861818 -100.418185 
L 174.608182 -100.364832 
L 174.354545 -100.309284 
L 174.100909 -100.251542 
L 173.847273 -100.19161 
L 173.593636 -100.129488 
L 173.34 -100.065179 
L 173.086364 -99.998687 
L 172.832727 -99.930015 
L 172.579091 -99.859166 
L 172.325455 -99.786143 
L 172.071818 -99.710952 
L 171.818182 -99.633597 
L 171.564545 -99.554082 
L 171.310909 -99.472413 
L 171.057273 -99.388596 
L 170.803636 -99.302635 
L 170.55 -99.214537 
L 170.296364 -99.124309 
L 170.042727 -99.031957 
L 169.789091 -98.937489 
L 169.535455 -98.840911 
L 169.281818 -98.742231 
L 169.028182 -98.641458 
L 168.774545 -98.538599 
L 168.520909 -98.433663 
L 168.267273 -98.326659 
L 168.013636 -98.217596 
L 167.76 -98.106484 
L 167.506364 -97.993332 
L 167.252727 -97.87815 
L 166.999091 -97.760949 
L 166.745455 -97.64174 
L 166.491818 -97.520533 
L 166.238182 -97.397339 
L 165.984545 -97.272171 
L 165.730909 -97.145039 
L 165.477273 -97.015957 
L 165.223636 -96.884936 
L 164.97 -96.751989 
L 164.716364 -96.617128 
L 164.462727 -96.480368 
L 164.209091 -96.341722 
L 163.955455 -96.201203 
L 163.701818 -96.058826 
L 163.448182 -95.914604 
L 163.194545 -95.768552 
L 162.940909 -95.620686 
L 162.687273 -95.47102 
L 162.433636 -95.319569 
L 162.18 -95.166349 
L 161.926364 -95.011377 
L 161.672727 -94.854667 
L 161.419091 -94.696237 
L 161.165455 -94.536104 
L 160.911818 -94.374283 
L 160.658182 -94.210792 
L 160.404545 -94.045649 
L 160.150909 -93.87887 
L 159.897273 -93.710475 
L 159.643636 -93.54048 
L 159.39 -93.368906 
L 159.136364 -93.196825 
L 158.882727 -93.612374 
L 158.629091 -94.031106 
L 158.375455 -94.451926 
L 158.121818 -94.874789 
L 157.868182 -95.299655 
L 157.614545 -95.726482 
L 157.360909 -96.155227 
L 157.107273 -96.585848 
L 156.853636 -97.018302 
L 156.6 -97.452548 
L 156.346364 -97.888543 
L 156.092727 -98.326243 
L 155.839091 -98.765607 
L 155.585455 -99.206592 
L 155.331818 -99.649155 
L 155.078182 -100.093252 
L 154.824545 -100.538841 
L 154.570909 -100.985879 
L 154.317273 -101.434323 
L 154.063636 -101.884129 
L 153.81 -102.335254 
L 153.556364 -102.787655 
L 153.302727 -103.241288 
L 153.049091 -103.696111 
L 152.795455 -104.152079 
L 152.541818 -104.609149 
L 152.288182 -105.067278 
L 152.034545 -105.526422 
L 151.780909 -105.986538 
L 151.527273 -106.447582 
L 151.273636 -106.90951 
L 151.02 -107.372279 
L 150.766364 -107.835845 
L 150.512727 -108.300165 
L 150.259091 -108.765196 
L 150.005455 -109.230892 
L 149.751818 -109.697212 
L 149.498182 -110.164111 
L 149.244545 -110.631545 
L 148.990909 -111.099472 
L 148.737273 -111.567848 
L 148.483636 -112.03663 
L 148.23 -112.505773 
L 147.976364 -112.975234 
L 147.722727 -113.444971 
L 147.469091 -113.91494 
L 147.215455 -114.385097 
L 146.961818 -114.8554 
L 146.708182 -115.325805 
L 146.454545 -115.796269 
L 146.200909 -116.266749 
L 145.947273 -116.737203 
L 145.693636 -117.207587 
L 145.44 -117.677859 
L 145.186364 -118.147976 
L 144.932727 -118.617895 
L 144.679091 -119.087574 
L 144.425455 -119.55697 
L 144.171818 -120.026041 
L 143.918182 -120.494745 
L 143.664545 -120.963039 
L 143.410909 -121.430882 
L 143.157273 -121.898232 
L 142.903636 -122.365046 
L 142.65 -122.831284 
L 142.396364 -123.296903 
L 142.142727 -123.761863 
L 141.889091 -124.226121 
L 141.635455 -124.689637 
L 141.381818 -125.15237 
L 141.128182 -125.614278 
L 140.874545 -126.075322 
L 140.620909 -126.535459 
L 140.367273 -126.994651 
L 140.113636 -127.452857 
L 139.86 -127.910035 
L 139.606364 -128.366148 
L 139.352727 -128.821154 
L 139.099091 -129.275014 
L 138.845455 -129.727689 
L 138.591818 -130.179138 
L 138.338182 -130.629324 
L 138.084545 -131.078207 
L 137.830909 -131.525749 
L 137.577273 -131.97191 
L 137.323636 -132.416652 
L 137.07 -132.859938 
L 136.816364 -133.301729 
L 136.562727 -133.741987 
L 136.309091 -134.180675 
L 136.055455 -134.617756 
L 135.801818 -135.053191 
L 135.548182 -135.486945 
L 135.294545 -135.91898 
L 135.040909 -136.34926 
L 134.787273 -136.777749 
L 134.533636 -137.20441 
L 134.28 -137.629207 
L 134.026364 -138.052106 
L 133.772727 -138.473069 
L 133.519091 -138.892063 
L 133.265455 -139.309052 
L 133.011818 -139.724002 
L 132.758182 -140.136878 
L 132.504545 -140.547646 
L 132.250909 -140.956271 
L 131.997273 -141.362721 
L 131.743636 -141.766961 
L 131.49 -142.168958 
L 131.236364 -142.56868 
L 130.982727 -142.966093 
L 130.729091 -143.361166 
L 130.475455 -143.753865 
L 130.221818 -144.14416 
L 129.968182 -144.532018 
L 129.714545 -144.917408 
L 129.460909 -145.300298 
L 129.207273 -145.680659 
L 128.953636 -146.058459 
L 128.7 -146.433667 
L 128.446364 -146.806255 
L 128.192727 -147.176192 
L 127.939091 -147.543449 
L 127.685455 -147.907997 
L 127.431818 -148.269806 
L 127.178182 -148.628849 
L 126.924545 -148.985096 
L 126.670909 -149.33852 
L 126.417273 -149.689093 
L 126.163636 -150.036788 
L 125.91 -150.381578 
L 125.656364 -150.723435 
L 125.402727 -151.062333 
L 125.149091 -151.398246 
L 124.895455 -151.731148 
L 124.641818 -152.061014 
L 124.388182 -152.387818 
L 124.134545 -152.711535 
L 123.880909 -153.03214 
L 123.627273 -153.34961 
L 123.373636 -153.663919 
L 123.12 -153.975045 
L 122.866364 -154.282963 
L 122.612727 -154.587651 
L 122.359091 -154.889086 
L 122.105455 -155.187246 
L 121.851818 -155.482107 
L 121.598182 -155.77365 
L 121.344545 -156.061851 
L 121.090909 -156.346689 
L 120.837273 -156.628145 
L 120.583636 -156.906197 
L 120.33 -157.180825 
L 120.076364 -157.452009 
L 119.822727 -157.71973 
L 119.569091 -157.983968 
L 119.315455 -158.244704 
L 119.061818 -158.501921 
L 118.808182 -158.755599 
L 118.554545 -159.005721 
L 118.300909 -159.252269 
L 118.047273 -159.495226 
L 117.793636 -159.734575 
L 117.54 -159.970299 
L 117.286364 -160.202383 
L 117.032727 -160.430809 
L 116.779091 -160.655564 
L 116.525455 -160.87663 
L 116.271818 -161.093995 
L 116.018182 -161.307642 
L 115.764545 -161.517558 
L 115.510909 -161.723729 
L 115.257273 -161.926141 
L 115.003636 -162.124781 
L 114.75 -162.319636 
L 114.496364 -162.510694 
L 114.242727 -162.697942 
L 113.989091 -162.881368 
L 113.735455 -163.060962 
L 113.481818 -163.236711 
L 113.228182 -163.408605 
L 112.974545 -163.576634 
L 112.720909 -163.740786 
L 112.467273 -163.901053 
L 112.213636 -164.057425 
L 111.96 -164.209892 
L 111.706364 -164.358447 
L 111.452727 -164.503079 
L 111.199091 -164.643781 
L 110.945455 -164.780546 
L 110.691818 -164.913366 
L 110.438182 -165.042233 
L 110.184545 -165.16714 
L 109.930909 -165.288082 
L 109.677273 -165.405053 
L 109.423636 -165.518045 
L 109.17 -165.627054 
L 108.916364 -165.732075 
L 108.662727 -165.833102 
L 108.409091 -165.930132 
L 108.155455 -166.02316 
L 107.901818 -166.112182 
L 107.648182 -166.197194 
L 107.394545 -166.278194 
L 107.140909 -166.355179 
L 106.887273 -166.428146 
L 106.633636 -166.497093 
L 106.38 -166.562017 
L 106.126364 -166.622918 
L 105.872727 -166.679795 
L 105.619091 -166.732645 
L 105.365455 -166.78147 
L 105.111818 -166.826267 
L 104.858182 -166.867038 
L 104.604545 -166.903783 
L 104.350909 -166.936502 
L 104.097273 -166.965196 
L 103.843636 -166.989868 
L 103.59 -167.010517 
L 103.336364 -167.027147 
L 103.082727 -167.039759 
L 102.829091 -167.048357 
L 102.575455 -167.052942 
L 102.321818 -167.053518 
L 102.068182 -167.050089 
L 101.814545 -167.042658 
L 101.560909 -167.031229 
L 101.307273 -167.015807 
L 101.053636 -166.996396 
L 100.8 -166.973002 
L 100.546364 -166.945629 
L 100.292727 -166.914284 
L 100.039091 -166.878972 
L 99.785455 -166.839698 
L 99.531818 -166.796471 
L 99.278182 -166.749296 
L 99.024545 -166.69818 
L 98.770909 -166.643131 
L 98.517273 -166.584156 
L 98.263636 -166.521263 
L 98.01 -166.454461 
L 97.756364 -166.383757 
L 97.502727 -166.309161 
L 97.249091 -166.230682 
L 96.995455 -166.148328 
L 96.741818 -166.062109 
L 96.488182 -165.972036 
L 96.234545 -165.878118 
L 95.980909 -165.780365 
L 95.727273 -165.678788 
L 95.473636 -165.573399 
L 95.22 -165.464207 
L 94.966364 -165.351225 
L 94.712727 -165.234465 
L 94.459091 -165.113937 
L 94.205455 -164.989655 
L 93.951818 -164.86163 
L 93.698182 -164.729876 
L 93.444545 -164.594406 
L 93.190909 -164.455231 
L 92.937273 -164.312367 
L 92.683636 -164.165826 
L 92.43 -164.015623 
L 92.176364 -163.861771 
L 91.922727 -163.704286 
L 91.669091 -163.543181 
L 91.415455 -163.378471 
L 91.161818 -163.210172 
L 90.908182 -163.038298 
L 90.654545 -162.862866 
L 90.400909 -162.683891 
L 90.147273 -162.501389 
L 89.893636 -162.315376 
L 89.64 -162.125869 
L 89.386364 -161.932884 
L 89.132727 -161.736438 
L 88.879091 -161.536549 
L 88.625455 -161.333232 
L 88.371818 -161.126507 
L 88.118182 -160.91639 
L 87.864545 -160.702899 
L 87.610909 -160.486053 
L 87.357273 -160.265869 
L 87.103636 -160.042367 
L 86.85 -159.815564 
L 86.596364 -159.585481 
L 86.342727 -159.352134 
L 86.089091 -159.115545 
L 85.835455 -158.875732 
L 85.581818 -158.632715 
L 85.328182 -158.386513 
L 85.074545 -158.137147 
L 84.820909 -157.884636 
L 84.567273 -157.629002 
L 84.313636 -157.370264 
L 84.06 -157.108443 
L 83.806364 -156.843559 
L 83.552727 -156.575635 
L 83.299091 -156.30469 
L 83.045455 -156.030746 
L 82.791818 -155.753825 
L 82.538182 -155.473947 
L 82.284545 -155.191136 
L 82.030909 -154.905412 
L 81.777273 -154.616798 
L 81.523636 -154.325315 
L 81.27 -154.030987 
L 81.016364 -153.733835 
L 80.762727 -153.433882 
L 80.509091 -153.13115 
L 80.255455 -152.825664 
L 80.001818 -152.517445 
L 79.748182 -152.206516 
L 79.494545 -151.892901 
L 79.240909 -151.576624 
L 78.987273 -151.257707 
L 78.733636 -150.936174 
L 78.48 -150.612049 
L 78.226364 -150.285355 
L 77.972727 -149.956117 
L 77.719091 -149.624358 
L 77.465455 -149.290103 
L 77.211818 -148.953376 
L 76.958182 -148.6142 
L 76.704545 -148.272602 
L 76.450909 -147.928604 
L 76.197273 -147.582231 
L 75.943636 -147.233509 
L 75.69 -146.882461 
L 75.436364 -146.529114 
L 75.182727 -146.173491 
L 74.929091 -145.815617 
L 74.675455 -145.455519 
L 74.421818 -145.09322 
L 74.168182 -144.728746 
L 73.914545 -144.362123 
L 73.660909 -143.993375 
L 73.407273 -143.622529 
L 73.153636 -143.249609 
L 72.9 -142.874641 
L 72.646364 -142.497651 
L 72.392727 -142.118664 
L 72.139091 -141.737707 
L 71.885455 -141.354804 
L 71.631818 -140.969982 
L 71.378182 -140.583266 
L 71.124545 -140.194682 
L 70.870909 -139.804257 
L 70.617273 -139.412016 
L 70.363636 -139.017985 
L 70.11 -138.622191 
L 69.856364 -138.224658 
L 69.602727 -137.825414 
L 69.349091 -137.424485 
L 69.095455 -137.021896 
L 68.841818 -136.617674 
L 68.588182 -136.211844 
L 68.334545 -135.804434 
L 68.080909 -135.395469 
L 67.827273 -134.984975 
L 67.573636 -134.572979 
L 67.32 -134.159507 
L 67.066364 -133.744586 
L 66.812727 -133.32824 
L 66.559091 -132.910497 
L 66.305455 -132.491383 
L 66.051818 -132.070924 
L 65.798182 -131.649147 
L 65.544545 -131.226077 
L 65.290909 -130.80174 
L 65.037273 -130.376164 
L 64.783636 -129.949373 
L 64.53 -129.521394 
L 64.276364 -129.092254 
L 64.022727 -128.661978 
L 63.769091 -128.230593 
L 63.515455 -127.798124 
L 63.261818 -127.364598 
L 63.008182 -126.93004 
L 62.754545 -126.494477 
L 62.500909 -126.057934 
L 62.247273 -125.620437 
L 61.993636 -125.182013 
L 61.74 -124.742687 
L 61.486364 -124.302484 
L 61.232727 -123.86143 
L 60.979091 -123.419552 
L 60.725455 -122.976874 
L 60.471818 -122.533423 
L 60.218182 -122.089223 
L 59.964545 -121.644301 
L 59.710909 -121.198681 
L 59.457273 -120.752389 
L 59.203636 -120.305451 
L 58.95 -119.857891 
L 58.696364 -119.409734 
L 58.442727 -118.961006 
L 58.189091 -118.511732 
L 57.935455 -118.061936 
L 57.681818 -117.611643 
z
" style="stroke: #008000; stroke-opacity: 0.25"/>
    </defs>
    <g clip-path="url(#p5c128c39c7)">
     <use xlink:href="#m8003063f26" x="0" y="288" style="fill: #008000; fill-opacity: 0.25; stroke: #008000; stroke-opacity: 0.25"/>
    </g>
   </g>
   <g id="matplotlib.axis_1">
    <g id="xtick_1">
     <g id="line2d_1">
      <path d="M 57.681818 256.32 
L 57.681818 34.56 
" clip-path="url(#p5c128c39c7)" style="fill: none; stroke: #b0b0b0; stroke-width: 0.8; stroke-linecap: square"/>
     </g>
     <g id="line2d_2">
      <defs>
       <path id="m6ed8aca456" d="M 0 0 
L 0 3.5 
" style="stroke: #000000; stroke-width: 0.8"/>
      </defs>
      <g>
       <use xlink:href="#m6ed8aca456" x="57.681818" y="256.32" style="stroke: #000000; stroke-width: 0.8"/>
      </g>
     </g>
     <g id="text_1">
      <!-- 0.0 -->
      <g transform="translate(49.730256 270.918437) scale(0.1 -0.1)">
       <defs>
        <path id="DejaVuSans-30" d="M 2034 4250 
Q 1547 4250 1301 3770 
Q 1056 3291 1056 2328 
Q 1056 1369 1301 889 
Q 1547 409 2034 409 
Q 2525 409 2770 889 
Q 3016 1369 3016 2328 
Q 3016 3291 2770 3770 
Q 2525 4250 2034 4250 
z
M 2034 4750 
Q 2819 4750 3233 4129 
Q 3647 3509 3647 2328 
Q 3647 1150 3233 529 
Q 2819 -91 2034 -91 
Q 1250 -91 836 529 
Q 422 1150 422 2328 
Q 422 3509 836 4129 
Q 1250 4750 2034 4750 
z
" transform="scale(0.015625)"/>
        <path id="DejaVuSans-2e" d="M 684 794 
L 1344 794 
L 1344 0 
L 684 0 
L 684 794 
z
" transform="scale(0.015625)"/>
       </defs>
       <use xlink:href="#DejaVuSans-30"/>
       <use xlink:href="#DejaVuSans-2e" x="63.623047"/>
       <use xlink:href="#DejaVuSans-30" x="95.410156"/>
      </g>
     </g>
    </g>
    <g id="xtick_2">
     <g id="line2d_3">
      <path d="M 108.409091 256.32 
L 108.409091 34.56 
" clip-path="url(#p5c128c39c7)" style="fill: none; stroke: #b0b0b0; stroke-width: 0.8; stroke-linecap: square"/>
     </g>
     <g id="line2d_4">
      <g>
       <use xlink:href="#m6ed8aca456" x="108.409091" y="256.32" style="stroke: #000000; stroke-width: 0.8"/>
      </g>
     </g>
     <g id="text_2">
      <!-- 0.2 -->
      <g transform="translate(100.457528 270.918437) scale(0.1 -0.1)">
       <defs>
        <path id="DejaVuSans-32" d="M 1228 531 
L 3431 531 
L 3431 0 
L 469 0 
L 469 531 
Q 828 903 1448 1529 
Q 2069 2156 2228 2338 
Q 2531 2678 2651 2914 
Q 2772 3150 2772 3378 
Q 2772 3750 2511 3984 
Q 2250 4219 1831 4219 
Q 1534 4219 1204 4116 
Q 875 4013 500 3803 
L 500 4441 
Q 881 4594 1212 4672 
Q 1544 4750 1819 4750 
Q 2544 4750 2975 4387 
Q 3406 4025 3406 3419 
Q 3406 3131 3298 2873 
Q 3191 2616 2906 2266 
Q 2828 2175 2409 1742 
Q 1991 1309 1228 531 
z
" transform="scale(0.015625)"/>
       </defs>
       <use xlink:href="#DejaVuSans-30"/>
       <use xlink:href="#DejaVuSans-2e" x="63.623047"/>
       <use xlink:href="#DejaVuSans-32" x="95.410156"/>
      </g>
     </g>
    </g>
    <g id="xtick_3">
     <g id="line2d_5">
      <path d="M 159.136364 256.32 
L 159.136364 34.56 
" clip-path="url(#p5c128c39c7)" style="fill: none; stroke: #b0b0b0; stroke-width: 0.8; stroke-linecap: square"/>
     </g>
     <g id="line2d_6">
      <g>
       <use xlink:href="#m6ed8aca456" x="159.136364" y="256.32" style="stroke: #000000; stroke-width: 0.8"/>
      </g>
     </g>
     <g id="text_3">
      <!-- 0.4 -->
      <g transform="translate(151.184801 270.918437) scale(0.1 -0.1)">
       <defs>
        <path id="DejaVuSans-34" d="M 2419 4116 
L 825 1625 
L 2419 1625 
L 2419 4116 
z
M 2253 4666 
L 3047 4666 
L 3047 1625 
L 3713 1625 
L 3713 1100 
L 3047 1100 
L 3047 0 
L 2419 0 
L 2419 1100 
L 313 1100 
L 313 1709 
L 2253 4666 
z
" transform="scale(0.015625)"/>
       </defs>
       <use xlink:href="#DejaVuSans-30"/>
       <use xlink:href="#DejaVuSans-2e" x="63.623047"/>
       <use xlink:href="#DejaVuSans-34" x="95.410156"/>
      </g>
     </g>
    </g>
    <g id="xtick_4">
     <g id="line2d_7">
      <path d="M 209.863636 256.32 
L 209.863636 34.56 
" clip-path="url(#p5c128c39c7)" style="fill: none; stroke: #b0b0b0; stroke-width: 0.8; stroke-linecap: square"/>
     </g>
     <g id="line2d_8">
      <g>
       <use xlink:href="#m6ed8aca456" x="209.863636" y="256.32" style="stroke: #000000; stroke-width: 0.8"/>
      </g>
     </g>
     <g id="text_4">
      <!-- 0.6 -->
      <g transform="translate(201.912074 270.918437) scale(0.1 -0.1)">
       <defs>
        <path id="DejaVuSans-36" d="M 2113 2584 
Q 1688 2584 1439 2293 
Q 1191 2003 1191 1497 
Q 1191 994 1439 701 
Q 1688 409 2113 409 
Q 2538 409 2786 701 
Q 3034 994 3034 1497 
Q 3034 2003 2786 2293 
Q 2538 2584 2113 2584 
z
M 3366 4563 
L 3366 3988 
Q 3128 4100 2886 4159 
Q 2644 4219 2406 4219 
Q 1781 4219 1451 3797 
Q 1122 3375 1075 2522 
Q 1259 2794 1537 2939 
Q 1816 3084 2150 3084 
Q 2853 3084 3261 2657 
Q 3669 2231 3669 1497 
Q 3669 778 3244 343 
Q 2819 -91 2113 -91 
Q 1303 -91 875 529 
Q 447 1150 447 2328 
Q 447 3434 972 4092 
Q 1497 4750 2381 4750 
Q 2619 4750 2861 4703 
Q 3103 4656 3366 4563 
z
" transform="scale(0.015625)"/>
       </defs>
       <use xlink:href="#DejaVuSans-30"/>
       <use xlink:href="#DejaVuSans-2e" x="63.623047"/>
       <use xlink:href="#DejaVuSans-36" x="95.410156"/>
      </g>
     </g>
    </g>
    <g id="xtick_5">
     <g id="line2d_9">
      <path d="M 260.590909 256.32 
L 260.590909 34.56 
" clip-path="url(#p5c128c39c7)" style="fill: none; stroke: #b0b0b0; stroke-width: 0.8; stroke-linecap: square"/>
     </g>
     <g id="line2d_10">
      <g>
       <use xlink:href="#m6ed8aca456" x="260.590909" y="256.32" style="stroke: #000000; stroke-width: 0.8"/>
      </g>
     </g>
     <g id="text_5">
      <!-- 0.8 -->
      <g transform="translate(252.639347 270.918437) scale(0.1 -0.1)">
       <defs>
        <path id="DejaVuSans-38" d="M 2034 2216 
Q 1584 2216 1326 1975 
Q 1069 1734 1069 1313 
Q 1069 891 1326 650 
Q 1584 409 2034 409 
Q 2484 409 2743 651 
Q 3003 894 3003 1313 
Q 3003 1734 2745 1975 
Q 2488 2216 2034 2216 
z
M 1403 2484 
Q 997 2584 770 2862 
Q 544 3141 544 3541 
Q 544 4100 942 4425 
Q 1341 4750 2034 4750 
Q 2731 4750 3128 4425 
Q 3525 4100 3525 3541 
Q 3525 3141 3298 2862 
Q 3072 2584 2669 2484 
Q 3125 2378 3379 2068 
Q 3634 1759 3634 1313 
Q 3634 634 3220 271 
Q 2806 -91 2034 -91 
Q 1263 -91 848 271 
Q 434 634 434 1313 
Q 434 1759 690 2068 
Q 947 2378 1403 2484 
z
M 1172 3481 
Q 1172 3119 1398 2916 
Q 1625 2713 2034 2713 
Q 2441 2713 2670 2916 
Q 2900 3119 2900 3481 
Q 2900 3844 2670 4047 
Q 2441 4250 2034 4250 
Q 1625 4250 1398 4047 
Q 1172 3844 1172 3481 
z
" transform="scale(0.015625)"/>
       </defs>
       <use xlink:href="#DejaVuSans-30"/>
       <use xlink:href="#DejaVuSans-2e" x="63.623047"/>
       <use xlink:href="#DejaVuSans-38" x="95.410156"/>
      </g>
     </g>
    </g>
    <g id="xtick_6">
     <g id="line2d_11">
      <path d="M 311.318182 256.32 
L 311.318182 34.56 
" clip-path="url(#p5c128c39c7)" style="fill: none; stroke: #b0b0b0; stroke-width: 0.8; stroke-linecap: square"/>
     </g>
     <g id="line2d_12">
      <g>
       <use xlink:href="#m6ed8aca456" x="311.318182" y="256.32" style="stroke: #000000; stroke-width: 0.8"/>
      </g>
     </g>
     <g id="text_6">
      <!-- 1.0 -->
      <g transform="translate(303.366619 270.918437) scale(0.1 -0.1)">
       <defs>
        <path id="DejaVuSans-31" d="M 794 531 
L 1825 531 
L 1825 4091 
L 703 3866 
L 703 4441 
L 1819 4666 
L 2450 4666 
L 2450 531 
L 3481 531 
L 3481 0 
L 794 0 
L 794 531 
z
" transform="scale(0.015625)"/>
       </defs>
       <use xlink:href="#DejaVuSans-31"/>
       <use xlink:href="#DejaVuSans-2e" x="63.623047"/>
       <use xlink:href="#DejaVuSans-30" x="95.410156"/>
      </g>
     </g>
    </g>
    <g id="text_7">
     <!-- x -->
     <g transform="translate(181.540625 284.596563) scale(0.1 -0.1)">
      <defs>
       <path id="DejaVuSans-78" d="M 3513 3500 
L 2247 1797 
L 3578 0 
L 2900 0 
L 1881 1375 
L 863 0 
L 184 0 
L 1544 1831 
L 300 3500 
L 978 3500 
L 1906 2253 
L 2834 3500 
L 3513 3500 
z
" transform="scale(0.015625)"/>
      </defs>
      <use xlink:href="#DejaVuSans-78"/>
     </g>
    </g>
   </g>
   <g id="matplotlib.axis_2">
    <g id="ytick_1">
     <g id="line2d_13">
      <path d="M 45 237.68308 
L 324 237.68308 
" clip-path="url(#p5c128c39c7)" style="fill: none; stroke: #b0b0b0; stroke-width: 0.8; stroke-linecap: square"/>
     </g>
     <g id="line2d_14">
      <defs>
       <path id="m4c0f95dc8d" d="M 0 0 
L -3.5 0 
" style="stroke: #000000; stroke-width: 0.8"/>
      </defs>
      <g>
       <use xlink:href="#m4c0f95dc8d" x="45" y="237.68308" style="stroke: #000000; stroke-width: 0.8"/>
      </g>
     </g>
     <g id="text_8">
      <!-- 5 -->
      <g transform="translate(23.257812 241.482298) scale(0.1 -0.1)">
       <defs>
        <path id="DejaVuSans-2212" d="M 678 2272 
L 4684 2272 
L 4684 1741 
L 678 1741 
L 678 2272 
z
" transform="scale(0.015625)"/>
        <path id="DejaVuSans-35" d="M 691 4666 
L 3169 4666 
L 3169 4134 
L 1269 4134 
L 1269 2991 
Q 1406 3038 1543 3061 
Q 1681 3084 1819 3084 
Q 2600 3084 3056 2656 
Q 3513 2228 3513 1497 
Q 3513 744 3044 326 
Q 2575 -91 1722 -91 
Q 1428 -91 1123 -41 
Q 819 9 494 109 
L 494 744 
Q 775 591 1075 516 
Q 1375 441 1709 441 
Q 2250 441 2565 725 
Q 2881 1009 2881 1497 
Q 2881 1984 2565 2268 
Q 2250 2553 1709 2553 
Q 1456 2553 1204 2497 
Q 953 2441 691 2322 
L 691 4666 
z
" transform="scale(0.015625)"/>
       </defs>
       <use xlink:href="#DejaVuSans-2212"/>
       <use xlink:href="#DejaVuSans-35" x="83.789062"/>
      </g>
     </g>
    </g>
    <g id="ytick_2">
     <g id="line2d_15">
      <path d="M 45 195.766447 
L 324 195.766447 
" clip-path="url(#p5c128c39c7)" style="fill: none; stroke: #b0b0b0; stroke-width: 0.8; stroke-linecap: square"/>
     </g>
     <g id="line2d_16">
      <g>
       <use xlink:href="#m4c0f95dc8d" x="45" y="195.766447" style="stroke: #000000; stroke-width: 0.8"/>
      </g>
     </g>
     <g id="text_9">
      <!-- 0 -->
      <g transform="translate(31.6375 199.565666) scale(0.1 -0.1)">
       <use xlink:href="#DejaVuSans-30"/>
      </g>
     </g>
    </g>
    <g id="ytick_3">
     <g id="line2d_17">
      <path d="M 45 153.849814 
L 324 153.849814 
" clip-path="url(#p5c128c39c7)" style="fill: none; stroke: #b0b0b0; stroke-width: 0.8; stroke-linecap: square"/>
     </g>
     <g id="line2d_18">
      <g>
       <use xlink:href="#m4c0f95dc8d" x="45" y="153.849814" style="stroke: #000000; stroke-width: 0.8"/>
      </g>
     </g>
     <g id="text_10">
      <!-- 5 -->
      <g transform="translate(31.6375 157.649033) scale(0.1 -0.1)">
       <use xlink:href="#DejaVuSans-35"/>
      </g>
     </g>
    </g>
    <g id="ytick_4">
     <g id="line2d_19">
      <path d="M 45 111.933182 
L 324 111.933182 
" clip-path="url(#p5c128c39c7)" style="fill: none; stroke: #b0b0b0; stroke-width: 0.8; stroke-linecap: square"/>
     </g>
     <g id="line2d_20">
      <g>
       <use xlink:href="#m4c0f95dc8d" x="45" y="111.933182" style="stroke: #000000; stroke-width: 0.8"/>
      </g>
     </g>
     <g id="text_11">
      <!-- 10 -->
      <g transform="translate(25.275 115.7324) scale(0.1 -0.1)">
       <use xlink:href="#DejaVuSans-31"/>
       <use xlink:href="#DejaVuSans-30" x="63.623047"/>
      </g>
     </g>
    </g>
    <g id="ytick_5">
     <g id="line2d_21">
      <path d="M 45 70.016549 
L 324 70.016549 
" clip-path="url(#p5c128c39c7)" style="fill: none; stroke: #b0b0b0; stroke-width: 0.8; stroke-linecap: square"/>
     </g>
     <g id="line2d_22">
      <g>
       <use xlink:href="#m4c0f95dc8d" x="45" y="70.016549" style="stroke: #000000; stroke-width: 0.8"/>
      </g>
     </g>
     <g id="text_12">
      <!-- 15 -->
      <g transform="translate(25.275 73.815768) scale(0.1 -0.1)">
       <use xlink:href="#DejaVuSans-31"/>
       <use xlink:href="#DejaVuSans-35" x="63.623047"/>
      </g>
     </g>
    </g>
    <g id="text_13">
     <!-- y -->
     <g transform="translate(17.178125 148.399375) rotate(-90) scale(0.1 -0.1)">
      <defs>
       <path id="DejaVuSans-79" d="M 2059 -325 
Q 1816 -950 1584 -1140 
Q 1353 -1331 966 -1331 
L 506 -1331 
L 506 -850 
L 844 -850 
Q 1081 -850 1212 -737 
Q 1344 -625 1503 -206 
L 1606 56 
L 191 3500 
L 800 3500 
L 1894 763 
L 2988 3500 
L 3597 3500 
L 2059 -325 
z
" transform="scale(0.015625)"/>
      </defs>
      <use xlink:href="#DejaVuSans-79"/>
     </g>
    </g>
   </g>
   <g id="line2d_23">
    <path d="M 57.681818 170.388357 
L 64.022727 180.564423 
L 67.573636 185.816362 
L 70.363636 189.575245 
L 72.9 192.655621 
L 75.436364 195.381237 
L 77.719091 197.51314 
L 80.001818 199.332379 
L 82.030909 200.685986 
L 84.06 201.795117 
L 86.089091 202.666948 
L 88.118182 203.311977 
L 90.147273 203.743628 
L 92.43 203.994108 
L 94.712727 204.020538 
L 97.249091 203.821583 
L 100.039091 203.372761 
L 103.336364 202.606531 
L 107.901818 201.286122 
L 118.047273 198.263291 
L 122.359091 197.261945 
L 126.163636 196.600422 
L 130.221818 196.130188 
L 134.533636 195.865309 
L 140.113636 195.768539 
L 150.766364 195.631978 
L 155.078182 195.323887 
L 159.136364 194.804234 
L 162.940909 194.094791 
L 166.999091 193.113548 
L 172.071818 191.640468 
L 181.71 188.773821 
L 185.007273 188.047452 
L 187.797273 187.645412 
L 190.333636 187.499234 
L 192.616364 187.581122 
L 194.899091 187.894017 
L 196.928182 188.38636 
L 198.957273 189.096275 
L 200.986364 190.036375 
L 203.015455 191.216228 
L 205.044545 192.641971 
L 207.327273 194.542642 
L 209.61 196.754599 
L 211.892727 199.268088 
L 214.429091 202.39355 
L 217.219091 206.195946 
L 220.516364 211.098781 
L 224.828182 217.966001 
L 233.198182 231.397683 
L 236.241818 235.79103 
L 238.524545 238.738999 
L 240.553636 241.039879 
L 242.329091 242.762211 
L 244.104545 244.175993 
L 245.626364 245.116327 
L 247.148182 245.784319 
L 248.416364 246.118827 
L 249.684545 246.24 
L 250.952727 246.137876 
L 252.220909 245.803245 
L 253.489091 245.22772 
L 254.757273 244.403812 
L 256.025455 243.324989 
L 257.293636 241.985751 
L 258.815455 240.028782 
L 260.337273 237.685083 
L 261.859091 234.951721 
L 263.634545 231.270053 
L 265.41 227.061924 
L 267.439091 221.620356 
L 269.468182 215.526391 
L 271.750909 207.931106 
L 274.287273 198.644575 
L 277.077273 187.520124 
L 280.374545 173.37168 
L 284.686364 153.770727 
L 293.31 114.278027 
L 296.353636 101.463957 
L 298.89 91.690493 
L 301.172727 83.795203 
L 303.201818 77.627199 
L 304.977273 72.974827 
L 306.499091 69.595055 
L 307.767273 67.238723 
L 309.035455 65.324701 
L 310.05 64.126195 
L 311.064545 63.234491 
L 311.318182 63.060635 
L 311.318182 63.060635 
" clip-path="url(#p5c128c39c7)" style="fill: none; stroke: #000000; stroke-width: 1.5; stroke-linecap: square"/>
   </g>
   <g id="line2d_24">
    <path d="M 57.681818 170.388357 
L 65.290909 171.09014 
L 75.182727 171.757219 
L 91.669091 172.842114 
L 98.517273 173.537874 
L 104.350909 174.348442 
L 109.677273 175.30795 
L 114.75 176.444175 
L 119.822727 177.814236 
L 124.895455 179.424557 
L 129.968182 181.270161 
L 135.294545 183.442072 
L 141.381818 186.17189 
L 149.244545 189.961573 
L 162.433636 196.344116 
L 167.76 198.654664 
L 172.071818 200.298337 
L 175.876364 201.527409 
L 179.427273 202.448591 
L 182.724545 203.078488 
L 185.768182 203.444047 
L 188.811818 203.582237 
L 191.601818 203.493454 
L 194.391818 203.185056 
L 197.181818 202.645117 
L 199.971818 201.863046 
L 202.761818 200.829735 
L 205.551818 199.537695 
L 208.341818 197.981181 
L 211.131818 196.156307 
L 213.921818 194.061138 
L 216.711818 191.695771 
L 219.755455 188.809843 
L 222.799091 185.610753 
L 226.096364 181.801962 
L 229.393636 177.651271 
L 232.944545 172.821275 
L 236.749091 167.264877 
L 240.807273 160.95061 
L 245.626364 153.014654 
L 251.206364 143.375096 
L 260.083636 127.515902 
L 269.214545 111.33521 
L 274.540909 102.33874 
L 279.106364 95.063288 
L 283.164545 89.027223 
L 286.715455 84.135935 
L 290.012727 79.958849 
L 293.056364 76.441333 
L 296.1 73.269322 
L 298.89 70.679651 
L 301.68 68.405017 
L 304.216364 66.617308 
L 306.752727 65.100733 
L 309.289091 63.857677 
L 311.318182 63.060635 
L 311.318182 63.060635 
" clip-path="url(#p5c128c39c7)" style="fill: none; stroke-dasharray: 5.55,2.4; stroke-dashoffset: 0; stroke: #0000ff; stroke-width: 1.5"/>
   </g>
   <g id="line2d_25">
    <defs>
     <path id="m292914e018" d="M 0 3 
C 0.795609 3 1.55874 2.683901 2.12132 2.12132 
C 2.683901 1.55874 3 0.795609 3 0 
C 3 -0.795609 2.683901 -1.55874 2.12132 -2.12132 
C 1.55874 -2.683901 0.795609 -3 0 -3 
C -0.795609 -3 -1.55874 -2.683901 -2.12132 -2.12132 
C -2.683901 -1.55874 -3 -0.795609 -3 0 
C -3 0.795609 -2.683901 1.55874 -2.12132 2.12132 
C -1.55874 2.683901 -0.795609 3 0 3 
z
" style="stroke: #ff0000"/>
    </defs>
    <g clip-path="url(#p5c128c39c7)">
     <use xlink:href="#m292914e018" x="57.681818" y="170.388357" style="fill: #ff0000; stroke: #ff0000"/>
     <use xlink:href="#m292914e018" x="159.136364" y="194.804234" style="fill: #ff0000; stroke: #ff0000"/>
     <use xlink:href="#m292914e018" x="209.863636" y="197.019233" style="fill: #ff0000; stroke: #ff0000"/>
     <use xlink:href="#m292914e018" x="311.318182" y="63.060635" style="fill: #ff0000; stroke: #ff0000"/>
    </g>
   </g>
   <g id="patch_3">
    <path d="M 45 256.32 
L 45 34.56 
" style="fill: none; stroke: #000000; stroke-width: 0.8; stroke-linejoin: miter; stroke-linecap: square"/>
   </g>
   <g id="patch_4">
    <path d="M 324 256.32 
L 324 34.56 
" style="fill: none; stroke: #000000; stroke-width: 0.8; stroke-linejoin: miter; stroke-linecap: square"/>
   </g>
   <g id="patch_5">
    <path d="M 45 256.32 
L 324 256.32 
" style="fill: none; stroke: #000000; stroke-width: 0.8; stroke-linejoin: miter; stroke-linecap: square"/>
   </g>
   <g id="patch_6">
    <path d="M 45 34.56 
L 324 34.56 
" style="fill: none; stroke: #000000; stroke-width: 0.8; stroke-linejoin: miter; stroke-linecap: square"/>
   </g>
   <g id="legend_1">
    <g id="patch_7">
     <path d="M 52 104.294375 
L 205.451563 104.294375 
Q 207.451563 104.294375 207.451563 102.294375 
L 207.451563 41.56 
Q 207.451563 39.56 205.451563 39.56 
L 52 39.56 
Q 50 39.56 50 41.56 
L 50 102.294375 
Q 50 104.294375 52 104.294375 
z
" style="fill: #ffffff; opacity: 0.8; stroke: #cccccc; stroke-linejoin: miter"/>
    </g>
    <g id="line2d_26">
     <path d="M 54 47.658437 
L 64 47.658437 
L 74 47.658437 
" style="fill: none; stroke: #000000; stroke-width: 1.5; stroke-linecap: square"/>
    </g>
    <g id="text_14">
     <!-- $f(x)$ -->
     <g transform="translate(82 51.158437) scale(0.1 -0.1)">
      <defs>
       <path id="DejaVuSans-Oblique-66" d="M 3059 4863 
L 2969 4384 
L 2419 4384 
Q 2106 4384 1964 4261 
Q 1822 4138 1753 3809 
L 1691 3500 
L 2638 3500 
L 2553 3053 
L 1606 3053 
L 1013 0 
L 434 0 
L 1031 3053 
L 481 3053 
L 563 3500 
L 1113 3500 
L 1159 3744 
Q 1278 4363 1576 4613 
Q 1875 4863 2516 4863 
L 3059 4863 
z
" transform="scale(0.015625)"/>
       <path id="DejaVuSans-28" d="M 1984 4856 
Q 1566 4138 1362 3434 
Q 1159 2731 1159 2009 
Q 1159 1288 1364 580 
Q 1569 -128 1984 -844 
L 1484 -844 
Q 1016 -109 783 600 
Q 550 1309 550 2009 
Q 550 2706 781 3412 
Q 1013 4119 1484 4856 
L 1984 4856 
z
" transform="scale(0.015625)"/>
       <path id="DejaVuSans-Oblique-78" d="M 3841 3500 
L 2234 1784 
L 3219 0 
L 2559 0 
L 1819 1388 
L 531 0 
L -166 0 
L 1556 1844 
L 641 3500 
L 1300 3500 
L 1972 2234 
L 3144 3500 
L 3841 3500 
z
" transform="scale(0.015625)"/>
       <path id="DejaVuSans-29" d="M 513 4856 
L 1013 4856 
Q 1481 4119 1714 3412 
Q 1947 2706 1947 2009 
Q 1947 1309 1714 600 
Q 1481 -109 1013 -844 
L 513 -844 
Q 928 -128 1133 580 
Q 1338 1288 1338 2009 
Q 1338 2731 1133 3434 
Q 928 4138 513 4856 
z
" transform="scale(0.015625)"/>
      </defs>
      <use xlink:href="#DejaVuSans-Oblique-66" transform="translate(0 0.015625)"/>
      <use xlink:href="#DejaVuSans-28" transform="translate(35.205078 0.015625)"/>
      <use xlink:href="#DejaVuSans-Oblique-78" transform="translate(74.21875 0.015625)"/>
      <use xlink:href="#DejaVuSans-29" transform="translate(133.398438 0.015625)"/>
     </g>
    </g>
    <g id="line2d_27">
     <path d="M 54 65.358437 
L 64 65.358437 
L 74 65.358437 
" style="fill: none; stroke-dasharray: 5.55,2.4; stroke-dashoffset: 0; stroke: #0000ff; stroke-width: 1.5"/>
    </g>
    <g id="text_15">
     <!-- $\hat{f}(x)$ -->
     <g transform="translate(82 68.858437) scale(0.1 -0.1)">
      <defs>
       <path id="DejaVuSans-302" d="M -1831 5119 
L -1369 5119 
L -603 3944 
L -1038 3944 
L -1600 4709 
L -2163 3944 
L -2597 3944 
L -1831 5119 
z
M -1600 3584 
L -1600 3584 
z
" transform="scale(0.015625)"/>
      </defs>
      <use xlink:href="#DejaVuSans-302" transform="translate(47.379395 33.015625)"/>
      <use xlink:href="#DejaVuSans-Oblique-66" transform="translate(0 0.53125)"/>
      <use xlink:href="#DejaVuSans-28" transform="translate(35.205078 0.53125)"/>
      <use xlink:href="#DejaVuSans-Oblique-78" transform="translate(74.21875 0.53125)"/>
      <use xlink:href="#DejaVuSans-29" transform="translate(133.398438 0.53125)"/>
     </g>
    </g>
    <g id="line2d_28">
     <g>
      <use xlink:href="#m292914e018" x="64" y="80.036563" style="fill: #ff0000; stroke: #ff0000"/>
     </g>
    </g>
    <g id="text_16">
     <!-- samples -->
     <g transform="translate(82 83.536563) scale(0.1 -0.1)">
      <defs>
       <path id="DejaVuSans-73" d="M 2834 3397 
L 2834 2853 
Q 2591 2978 2328 3040 
Q 2066 3103 1784 3103 
Q 1356 3103 1142 2972 
Q 928 2841 928 2578 
Q 928 2378 1081 2264 
Q 1234 2150 1697 2047 
L 1894 2003 
Q 2506 1872 2764 1633 
Q 3022 1394 3022 966 
Q 3022 478 2636 193 
Q 2250 -91 1575 -91 
Q 1294 -91 989 -36 
Q 684 19 347 128 
L 347 722 
Q 666 556 975 473 
Q 1284 391 1588 391 
Q 1994 391 2212 530 
Q 2431 669 2431 922 
Q 2431 1156 2273 1281 
Q 2116 1406 1581 1522 
L 1381 1569 
Q 847 1681 609 1914 
Q 372 2147 372 2553 
Q 372 3047 722 3315 
Q 1072 3584 1716 3584 
Q 2034 3584 2315 3537 
Q 2597 3491 2834 3397 
z
" transform="scale(0.015625)"/>
       <path id="DejaVuSans-61" d="M 2194 1759 
Q 1497 1759 1228 1600 
Q 959 1441 959 1056 
Q 959 750 1161 570 
Q 1363 391 1709 391 
Q 2188 391 2477 730 
Q 2766 1069 2766 1631 
L 2766 1759 
L 2194 1759 
z
M 3341 1997 
L 3341 0 
L 2766 0 
L 2766 531 
Q 2569 213 2275 61 
Q 1981 -91 1556 -91 
Q 1019 -91 701 211 
Q 384 513 384 1019 
Q 384 1609 779 1909 
Q 1175 2209 1959 2209 
L 2766 2209 
L 2766 2266 
Q 2766 2663 2505 2880 
Q 2244 3097 1772 3097 
Q 1472 3097 1187 3025 
Q 903 2953 641 2809 
L 641 3341 
Q 956 3463 1253 3523 
Q 1550 3584 1831 3584 
Q 2591 3584 2966 3190 
Q 3341 2797 3341 1997 
z
" transform="scale(0.015625)"/>
       <path id="DejaVuSans-6d" d="M 3328 2828 
Q 3544 3216 3844 3400 
Q 4144 3584 4550 3584 
Q 5097 3584 5394 3201 
Q 5691 2819 5691 2113 
L 5691 0 
L 5113 0 
L 5113 2094 
Q 5113 2597 4934 2840 
Q 4756 3084 4391 3084 
Q 3944 3084 3684 2787 
Q 3425 2491 3425 1978 
L 3425 0 
L 2847 0 
L 2847 2094 
Q 2847 2600 2669 2842 
Q 2491 3084 2119 3084 
Q 1678 3084 1418 2786 
Q 1159 2488 1159 1978 
L 1159 0 
L 581 0 
L 581 3500 
L 1159 3500 
L 1159 2956 
Q 1356 3278 1631 3431 
Q 1906 3584 2284 3584 
Q 2666 3584 2933 3390 
Q 3200 3197 3328 2828 
z
" transform="scale(0.015625)"/>
       <path id="DejaVuSans-70" d="M 1159 525 
L 1159 -1331 
L 581 -1331 
L 581 3500 
L 1159 3500 
L 1159 2969 
Q 1341 3281 1617 3432 
Q 1894 3584 2278 3584 
Q 2916 3584 3314 3078 
Q 3713 2572 3713 1747 
Q 3713 922 3314 415 
Q 2916 -91 2278 -91 
Q 1894 -91 1617 61 
Q 1341 213 1159 525 
z
M 3116 1747 
Q 3116 2381 2855 2742 
Q 2594 3103 2138 3103 
Q 1681 3103 1420 2742 
Q 1159 2381 1159 1747 
Q 1159 1113 1420 752 
Q 1681 391 2138 391 
Q 2594 391 2855 752 
Q 3116 1113 3116 1747 
z
" transform="scale(0.015625)"/>
       <path id="DejaVuSans-6c" d="M 603 4863 
L 1178 4863 
L 1178 0 
L 603 0 
L 603 4863 
z
" transform="scale(0.015625)"/>
       <path id="DejaVuSans-65" d="M 3597 1894 
L 3597 1613 
L 953 1613 
Q 991 1019 1311 708 
Q 1631 397 2203 397 
Q 2534 397 2845 478 
Q 3156 559 3463 722 
L 3463 178 
Q 3153 47 2828 -22 
Q 2503 -91 2169 -91 
Q 1331 -91 842 396 
Q 353 884 353 1716 
Q 353 2575 817 3079 
Q 1281 3584 2069 3584 
Q 2775 3584 3186 3129 
Q 3597 2675 3597 1894 
z
M 3022 2063 
Q 3016 2534 2758 2815 
Q 2500 3097 2075 3097 
Q 1594 3097 1305 2825 
Q 1016 2553 972 2059 
L 3022 2063 
z
" transform="scale(0.015625)"/>
      </defs>
      <use xlink:href="#DejaVuSans-73"/>
      <use xlink:href="#DejaVuSans-61" x="52.099609"/>
      <use xlink:href="#DejaVuSans-6d" x="113.378906"/>
      <use xlink:href="#DejaVuSans-70" x="210.791016"/>
      <use xlink:href="#DejaVuSans-6c" x="274.267578"/>
      <use xlink:href="#DejaVuSans-65" x="302.050781"/>
      <use xlink:href="#DejaVuSans-73" x="363.574219"/>
     </g>
    </g>
    <g id="patch_8">
     <path d="M 54 98.214687 
L 74 98.214687 
L 74 91.214687 
L 54 91.214687 
z
" style="fill: #008000; fill-opacity: 0.25; stroke: #008000; stroke-opacity: 0.25; stroke-linejoin: miter"/>
    </g>
    <g id="text_17">
     <!-- 95% confidence interval -->
     <g transform="translate(82 98.214687) scale(0.1 -0.1)">
      <defs>
       <path id="DejaVuSans-39" d="M 703 97 
L 703 672 
Q 941 559 1184 500 
Q 1428 441 1663 441 
Q 2288 441 2617 861 
Q 2947 1281 2994 2138 
Q 2813 1869 2534 1725 
Q 2256 1581 1919 1581 
Q 1219 1581 811 2004 
Q 403 2428 403 3163 
Q 403 3881 828 4315 
Q 1253 4750 1959 4750 
Q 2769 4750 3195 4129 
Q 3622 3509 3622 2328 
Q 3622 1225 3098 567 
Q 2575 -91 1691 -91 
Q 1453 -91 1209 -44 
Q 966 3 703 97 
z
M 1959 2075 
Q 2384 2075 2632 2365 
Q 2881 2656 2881 3163 
Q 2881 3666 2632 3958 
Q 2384 4250 1959 4250 
Q 1534 4250 1286 3958 
Q 1038 3666 1038 3163 
Q 1038 2656 1286 2365 
Q 1534 2075 1959 2075 
z
" transform="scale(0.015625)"/>
       <path id="DejaVuSans-25" d="M 4653 2053 
Q 4381 2053 4226 1822 
Q 4072 1591 4072 1178 
Q 4072 772 4226 539 
Q 4381 306 4653 306 
Q 4919 306 5073 539 
Q 5228 772 5228 1178 
Q 5228 1588 5073 1820 
Q 4919 2053 4653 2053 
z
M 4653 2450 
Q 5147 2450 5437 2106 
Q 5728 1763 5728 1178 
Q 5728 594 5436 251 
Q 5144 -91 4653 -91 
Q 4153 -91 3862 251 
Q 3572 594 3572 1178 
Q 3572 1766 3864 2108 
Q 4156 2450 4653 2450 
z
M 1428 4353 
Q 1159 4353 1004 4120 
Q 850 3888 850 3481 
Q 850 3069 1003 2837 
Q 1156 2606 1428 2606 
Q 1700 2606 1854 2837 
Q 2009 3069 2009 3481 
Q 2009 3884 1853 4118 
Q 1697 4353 1428 4353 
z
M 4250 4750 
L 4750 4750 
L 1831 -91 
L 1331 -91 
L 4250 4750 
z
M 1428 4750 
Q 1922 4750 2215 4408 
Q 2509 4066 2509 3481 
Q 2509 2891 2217 2550 
Q 1925 2209 1428 2209 
Q 931 2209 642 2551 
Q 353 2894 353 3481 
Q 353 4063 643 4406 
Q 934 4750 1428 4750 
z
" transform="scale(0.015625)"/>
       <path id="DejaVuSans-20" transform="scale(0.015625)"/>
       <path id="DejaVuSans-63" d="M 3122 3366 
L 3122 2828 
Q 2878 2963 2633 3030 
Q 2388 3097 2138 3097 
Q 1578 3097 1268 2742 
Q 959 2388 959 1747 
Q 959 1106 1268 751 
Q 1578 397 2138 397 
Q 2388 397 2633 464 
Q 2878 531 3122 666 
L 3122 134 
Q 2881 22 2623 -34 
Q 2366 -91 2075 -91 
Q 1284 -91 818 406 
Q 353 903 353 1747 
Q 353 2603 823 3093 
Q 1294 3584 2113 3584 
Q 2378 3584 2631 3529 
Q 2884 3475 3122 3366 
z
" transform="scale(0.015625)"/>
       <path id="DejaVuSans-6f" d="M 1959 3097 
Q 1497 3097 1228 2736 
Q 959 2375 959 1747 
Q 959 1119 1226 758 
Q 1494 397 1959 397 
Q 2419 397 2687 759 
Q 2956 1122 2956 1747 
Q 2956 2369 2687 2733 
Q 2419 3097 1959 3097 
z
M 1959 3584 
Q 2709 3584 3137 3096 
Q 3566 2609 3566 1747 
Q 3566 888 3137 398 
Q 2709 -91 1959 -91 
Q 1206 -91 779 398 
Q 353 888 353 1747 
Q 353 2609 779 3096 
Q 1206 3584 1959 3584 
z
" transform="scale(0.015625)"/>
       <path id="DejaVuSans-6e" d="M 3513 2113 
L 3513 0 
L 2938 0 
L 2938 2094 
Q 2938 2591 2744 2837 
Q 2550 3084 2163 3084 
Q 1697 3084 1428 2787 
Q 1159 2491 1159 1978 
L 1159 0 
L 581 0 
L 581 3500 
L 1159 3500 
L 1159 2956 
Q 1366 3272 1645 3428 
Q 1925 3584 2291 3584 
Q 2894 3584 3203 3211 
Q 3513 2838 3513 2113 
z
" transform="scale(0.015625)"/>
       <path id="DejaVuSans-66" d="M 2375 4863 
L 2375 4384 
L 1825 4384 
Q 1516 4384 1395 4259 
Q 1275 4134 1275 3809 
L 1275 3500 
L 2222 3500 
L 2222 3053 
L 1275 3053 
L 1275 0 
L 697 0 
L 697 3053 
L 147 3053 
L 147 3500 
L 697 3500 
L 697 3744 
Q 697 4328 969 4595 
Q 1241 4863 1831 4863 
L 2375 4863 
z
" transform="scale(0.015625)"/>
       <path id="DejaVuSans-69" d="M 603 3500 
L 1178 3500 
L 1178 0 
L 603 0 
L 603 3500 
z
M 603 4863 
L 1178 4863 
L 1178 4134 
L 603 4134 
L 603 4863 
z
" transform="scale(0.015625)"/>
       <path id="DejaVuSans-64" d="M 2906 2969 
L 2906 4863 
L 3481 4863 
L 3481 0 
L 2906 0 
L 2906 525 
Q 2725 213 2448 61 
Q 2172 -91 1784 -91 
Q 1150 -91 751 415 
Q 353 922 353 1747 
Q 353 2572 751 3078 
Q 1150 3584 1784 3584 
Q 2172 3584 2448 3432 
Q 2725 3281 2906 2969 
z
M 947 1747 
Q 947 1113 1208 752 
Q 1469 391 1925 391 
Q 2381 391 2643 752 
Q 2906 1113 2906 1747 
Q 2906 2381 2643 2742 
Q 2381 3103 1925 3103 
Q 1469 3103 1208 2742 
Q 947 2381 947 1747 
z
" transform="scale(0.015625)"/>
       <path id="DejaVuSans-74" d="M 1172 4494 
L 1172 3500 
L 2356 3500 
L 2356 3053 
L 1172 3053 
L 1172 1153 
Q 1172 725 1289 603 
Q 1406 481 1766 481 
L 2356 481 
L 2356 0 
L 1766 0 
Q 1100 0 847 248 
Q 594 497 594 1153 
L 594 3053 
L 172 3053 
L 172 3500 
L 594 3500 
L 594 4494 
L 1172 4494 
z
" transform="scale(0.015625)"/>
       <path id="DejaVuSans-72" d="M 2631 2963 
Q 2534 3019 2420 3045 
Q 2306 3072 2169 3072 
Q 1681 3072 1420 2755 
Q 1159 2438 1159 1844 
L 1159 0 
L 581 0 
L 581 3500 
L 1159 3500 
L 1159 2956 
Q 1341 3275 1631 3429 
Q 1922 3584 2338 3584 
Q 2397 3584 2469 3576 
Q 2541 3569 2628 3553 
L 2631 2963 
z
" transform="scale(0.015625)"/>
       <path id="DejaVuSans-76" d="M 191 3500 
L 800 3500 
L 1894 563 
L 2988 3500 
L 3597 3500 
L 2284 0 
L 1503 0 
L 191 3500 
z
" transform="scale(0.015625)"/>
      </defs>
      <use xlink:href="#DejaVuSans-39"/>
      <use xlink:href="#DejaVuSans-35" x="63.623047"/>
      <use xlink:href="#DejaVuSans-25" x="127.246094"/>
      <use xlink:href="#DejaVuSans-20" x="222.265625"/>
      <use xlink:href="#DejaVuSans-63" x="254.052734"/>
      <use xlink:href="#DejaVuSans-6f" x="309.033203"/>
      <use xlink:href="#DejaVuSans-6e" x="370.214844"/>
      <use xlink:href="#DejaVuSans-66" x="433.59375"/>
      <use xlink:href="#DejaVuSans-69" x="468.798828"/>
      <use xlink:href="#DejaVuSans-64" x="496.582031"/>
      <use xlink:href="#DejaVuSans-65" x="560.058594"/>
      <use xlink:href="#DejaVuSans-6e" x="621.582031"/>
      <use xlink:href="#DejaVuSans-63" x="684.960938"/>
      <use xlink:href="#DejaVuSans-65" x="739.941406"/>
      <use xlink:href="#DejaVuSans-20" x="801.464844"/>
      <use xlink:href="#DejaVuSans-69" x="833.251953"/>
      <use xlink:href="#DejaVuSans-6e" x="861.035156"/>
      <use xlink:href="#DejaVuSans-74" x="924.414062"/>
      <use xlink:href="#DejaVuSans-65" x="963.623047"/>
      <use xlink:href="#DejaVuSans-72" x="1025.146484"/>
      <use xlink:href="#DejaVuSans-76" x="1066.259766"/>
      <use xlink:href="#DejaVuSans-61" x="1125.439453"/>
      <use xlink:href="#DejaVuSans-6c" x="1186.71875"/>
     </g>
    </g>
   </g>
  </g>
 </g>
 <defs>
  <clipPath id="p5c128c39c7">
   <rect x="45" y="34.56" width="279" height="221.76"/>
  </clipPath>
 </defs>
</svg>
